<mxfile host="app.diagrams.net" modified="2020-12-17T13:37:06.436Z" agent="5.0 (Windows)" etag="Skjby8RUOKOWAUvcKbDf" version="14.0.4" type="github">
  <diagram name="Page-1" id="74e2e168-ea6b-b213-b513-2b3c1d86103e">
    <mxGraphModel dx="782" dy="432" grid="1" gridSize="10" guides="1" tooltips="1" connect="1" arrows="1" fold="1" page="1" pageScale="1" pageWidth="1100" pageHeight="850" background="#ffffff" math="0" shadow="0">
      <root>
        <mxCell id="0" />
        <mxCell id="1" parent="0" />
        <mxCell id="0eAvDL_jHnbjMay1iFv8-2" value="&lt;div&gt;Status kehadiran akan ditampilkan&lt;/div&gt;&lt;div&gt;&lt;br&gt;&lt;/div&gt;" style="image;html=1;image=img/lib/clip_art/computers/Laptop_128x128.png" vertex="1" parent="1">
          <mxGeometry x="60" y="280" width="80" height="80" as="geometry" />
        </mxCell>
        <mxCell id="0eAvDL_jHnbjMay1iFv8-3" value="&lt;div&gt;&lt;font face=&quot;Times New Roman&quot;&gt;Login pada web absensi&lt;/font&gt;&lt;/div&gt;&lt;div&gt;&lt;font face=&quot;Times New Roman&quot;&gt;&lt;br&gt;&lt;/font&gt;&lt;/div&gt;" style="aspect=fixed;html=1;points=[];align=center;image;fontSize=12;image=img/lib/mscae/CustomDomain.svg;" vertex="1" parent="1">
          <mxGeometry x="390" y="80" width="61.9" height="52" as="geometry" />
        </mxCell>
        <mxCell id="0eAvDL_jHnbjMay1iFv8-5" value="Data akan disimpan di database" style="image;html=1;image=img/lib/clip_art/computers/Database_128x128.png" vertex="1" parent="1">
          <mxGeometry x="260" y="320" width="80" height="80" as="geometry" />
        </mxCell>
        <mxCell id="0eAvDL_jHnbjMay1iFv8-6" value="Melakukan registrasi sidik jari&#xa;pada mesin fingerprint &#xa;" style="shape=image;verticalLabelPosition=bottom;labelBackgroundColor=#ffffff;verticalAlign=top;aspect=fixed;imageAspect=0;image=data:image/jpeg,/9j/4AAQSkZJRgABAgAAZABkAAD/7AARRHVja3kAAQAEAAAAPAAA/+4ADkFkb2JlAGTAAAAAAf/bAIQABgQEBAUEBgUFBgkGBQYJCwgGBggLDAoKCwoKDBAMDAwMDAwQDA4PEA8ODBMTFBQTExwbGxscHx8fHx8fHx8fHwEHBwcNDA0YEBAYGhURFRofHx8fHx8fHx8fHx8fHx8fHx8fHx8fHx8fHx8fHx8fHx8fHx8fHx8fHx8fHx8fHx8f/8AAEQgBBAFfAwERAAIRAQMRAf/EALAAAAEFAQEBAQAAAAAAAAAAAAABAgMEBQYHCAkBAQEBAQEBAQAAAAAAAAAAAAABAgMEBQYQAAIBAwEEBAoFBwkHAgYDAAECAwARBAUhMRIGQVETB2FxgZGhsSIyFAjBUiMzFdFCYnKCkrKiwtJTc7MkNBbw4UNjwxcYgzXx4qNUdCXTREYRAQEBAAICAQQBAwQCAwAAAAABEQISIQMxQVETBBRhIgVxgbFS8DKRoRX/2gAMAwEAAhEDEQA/APqeoCg5TnjvP5M5KxjJrecq5RXih0+G0mTJ4owfZH6TWHhouPmXvF+Y3nDmgS4Okk6Fo73UxwNfJlU7PtJhawP1Ut4b0HlqahqKe5lTL+rI49Rpi6nj5g5gi2x6ploetciUepqYatxc685xW7LXtQS262XP/SpiLcXeX3jRD7PmfVFG/wDzc39Kgsp3ud6CHZzTqR/WnZvXemLq3F31968duHmbLNvrFG/iU0FuPv8Ae92PdzDI360OO3rjoi2nzH98CjbrMbfrYmN9EdBPH8y3e2tuLPxpP1sSLb+6BQW4vmh70k99sCTwtjEfwuKKtw/Nb3jIbvg6ZKOoxTD1S0RZT5tOetnHo+lnrsMgX/8Aqmgsx/NvzSPvNBwW/VkmHrvQW4vm61QH7XlqBh+hlOPXGaC3F83q2Ha8rEnp4MwD1w0MWE+bvTD7/LE4/VykPrjFDFmP5t+WiftNAzVHTwyxN+Shi1H82XJBH2uk6kh6eFYW/wCoKGLUfzWd27e/iaon/oRH1TUMTp80ndg1rrqKX+tjLs80hoYsJ8zfdSxscvLT9bFk+i9DFqP5ju6RwCdWkjv0NjZGzzIaGLUfzA90D/8A+hRf1oMkf9KhiePv17pHtw8y4wv9ZZl/iQUMWou+PutkF15mwf2pOH+IChi5F3m93UvuczaZ5cqJfWwoYtJz1yRJbg5h0x77gMzHP8+hixHzTyxL93rGC99g4cmE+pqGLUeq6XJ93mQPbfwyofUaIsIyOLowYdYINUOsagLGgLGgKAoCgKAoCgKAoPmjv7+YjmHROZs/k/l22EuGsaZmrJZ5zJJGHZIuLZHwhrE7TfdarhuPnvOyMydpM/Nkknll+1mnlfjkbi23YsSxNMXT007OZFcRbGAIBZb2Plq4naF/Dc8f8Bj4rH6aYdob8DnDfjyfummGwhxsob4JB+w35KYaaY5RvjceNT+SmLpu7eCPGDUB2ijeQKBRInWPPQLxp1jz0C8ajqoDjFAvFQHGKA4qA46BOPbQBY0Bc0Bc0Bc0Bc0BQLxeCgOI0Bc0C0DfGKBLDqFAWXqFAtyN2zxbKB65GQvuyuviZh9NMNTJq+qxW7PNyEtu4ZpBbzGmLq1DzZzTDsi1jOTp9nJmG3yNTE1ci7w+fYvuuY9TS++2XP8A0qC2nex3mp7vNOp+XJkb1k0E6d83elHa3M2cbfWkDfxA1MXVqPv472o/d5inN/rJC3rSqi1F8w/e9GABrvFb62NjN646CynzI9799urQsOo4mP8AQgoOv7pvmH531rvA0rQtdycfJ07UXeB2WBInWQoTHwslvzwBtpg+nqiCg/OjvF1Ma13hcxaipuuZqWQU/U7Uov8AJArcZ5fKrmKZSkA/40qR28F9vootdJs2+qtMAHZQLQFzfftoFDONzHz0QvaP9c+c0CFm6WJ8dFNNulQfGAfooG8ER3xIf2F/JQNMGKd8EZ/YX8lFNOJhn/8Arx/ugeqpgb8Fhf8A26eTiHqNXDaQ6fgn/gDyM/8ASqYbTfw3B/qyPE7flphtB03DOzhcDwOfyUxdpv4Xh9co/bH9GmHak/CsboklHlU/zamHak/CYeieQeRT+SnU7UHSk6Mh/Ki/lp1Oxp0o/wD3B8sY/pUw7EOlP0ZK/uH8tOp2J+FTf18Z8asKdTsb+F5P9ZEf3x9FOq9lNWYs6nhVo3ZGUnpXydNTF1BLqHZuU7PaN5vsp1OxsWoM8wRgFUgkEbTcHyUw1aEgP5/8n/fVw0cQ6HHmNMNNLfpL6fyU6mji8Knyn+jUw0cR/R/e/wB1MXRc9Q8XEKYaOI9XpX8tMTRc/VPnX8tMXRf9FvNTDRfwN+635KYmkaRFBLEqBtJKt+SmGovxDDH55PiU0w2GSZqyqBBfgO9iLE0hrT5O1RtI5r0bVFNjhZ2PPfwJKpPopSP0VuL36OuoKOuaiNM0TUNSO7CxZsg/+lGz/wA2oPzbxGafOjkbaXcyt4zdjW2dauMvaarip0JxyH9lbes1VroNtVgm40DtlAUBQJsv4aBL9NqA6PDQLHHJLIscal5JCFRALkkmwAFFbOTyXzJjahHgT4qxzS465iyGeDsPh2NhKcjj7BU4vZuX97ZvoMVgVYqbXBsbEEecUCUBQFAUBQFAUBQIaIKAqAqjAzl7PUpwN0gSTykcJ/hqRuM6cWcE72UE+MbPoqiIG0sZ8NvPUqL4NVooNAl6ILmilvRBeigk0QbaA20CCgGBZWXoZWHov9FCswVGEmHuI6mP5ajcWwSNo3jaPHRX38NeY91f4+Gu/wCB/HcV/wA4YnaH01hfqpd+GpvpndJzTlIbMcF4Af8A8giD/qVUfBOlr/iGb6kZ9NhW2Y1tHXj1OV9/ZQgDxu3/AMtCtqqgvQAoFF/JRC7eigQigSiigtabp8uoZa4sUsMLsGbtMmaPHjAVSxvJKyKN2wX2mg7zUsnT9X7vsbRcPVofi+Xclo3+JmjgGZjzAyK0Ik4HZYp+NUU3IDcR4RsULmRicvxa3pkE50XIyMPQQcfs5sJcPI1W5PDlyQMsV4w9vtWAfgFyQdsCoeV5czHGR+DT8zYelTOwQYuPpcue2QBDG5TssN2ix2ZifcZgBdukMHm7L5T7TCinxo8vVosHg1LJ0aTHw8P4wyOyELFBLDKEiKK5i4Qx3NQWOdodK07Dn0/SX0jI0Xhxxp+TC0E+oyvwh5Z5JEDzx3PErRyMijYFWqOCoCgKAoCiCgS1AUCVBj6ynDlwSfXRkPjBDD6afVqMvLtZT1Ej1H6apVSQ2W/1SD5jUqNBTcVWi0KL0QXoujiokHGtF0cQoaUMKGgmgL0NF7Mp8IojNYcLsvUSPMajJ2L9648ANRqLtGn2LypqDZvytZExa7x8valAfAYIp4x6FFZWk+bHUmxO6OaBTY5+di45HWoZpj/dUiPjnSx7EzdfCvrNbZ4tbQBdsyTrkVB4lW/86hWtVQUDgR5aICQPBQAI66AuOigLi1Al/BQJRRQFAUBQFAUBQFAUBQFAUBQFEZmuJ9jDJ9SQeZgVqNRi5I9g+Ag+e4qrYpvtUjrFGV2FuKNT1gVGjyaqEvQRmeMGxYX6r0QrcDxm7WBHvDZ6aCJYIAwPbSEg3tcbamKdNErsCJmjt+aLW9NKHQx8AP2hkv1gC1A/jHXVQ64opG909dBSyf8AMP1E3HlF6Mkxv8yPCp9FZrUXqNPqLuizTkfLHzXCTf4PG1iEDqDYhlH95WfqtQfOhqDx6Byxp4Ps5GZkTsv9jEqj+9qxm/D5l08WxGP1nPoArSRr6AP8AX6ZJZG9PD/NolaVUFBDlzGKEsvvE2B6r1KRY0rlvWNRxBlxPjxxOWCGcvxMFPCSOFJNnECK7+n9Xn7JsZ5+3jxuVbPJWu7Bx4h8IMmzzxiun8D2/Zj+Rw+5rcncxjcmO/6jsPWFqfwfb9v+D+Rw+6M8pc0jb8Gp8Uyf06zf1Pb/ANWp7uH3Dcrc2KBfT28k8TeqQ1n+N7P+tPzcPvEbcvc0pv06X9l1b1Maz+D2f9av5OH3iI6VzKu/TMvxiJz6lrP4+f2rXbj94Y2BzGi3bTcwA9Jx5LefgqdeX2XwjZNZTa2HkKP0oXA/hqeTIgfOyIyVkQqw3hlIPpqauEOqMB+b5dn001OoGqnqU+WmnU4amT+YD5aaYUamOmP0006l/Elv7ht46aYcNRi6VIpphyZ8DNY3HhNXTFkG9VBQFBS1hC2nyWFytmHjUg1KsYWQLo3iv5iKq1QajKxhteBQejZ5qi6nqlFEVJJcLjYOilr+0SvTWfCpuLH+HBsBBbduFr1RFH+Hca8AHFf2dp3+ep4D50xGf7b37fWtsq1DoFx1U9lcj84k8VIqLscUnZK4/a/3UxFkABQBtAGwmqpaIp5WyRSelB6Nn0UEcJtkx+E284qVeLSttqNvoHuLzGfuT7zMMnZBh5UoH9tgSr/0qz9RU+c7OZuaOW8C/sw4M09vDLME/wClV4s8vh4TjezhJ4eJvSa0Rt6KvDpeP4V4j+0S300jK7VBQVdR+5HjqVY6LlrCyp9Kw58nObC0vG42UhljDydvJe7HbYeGvpfo8b123OOvN+xykvx5dSmp6DiFMZ9QhDlTIoeUMSo2libmvo/m4T6vHePK/RrxQq6q6niVgGVhuIO0GukrlUy43gpokXFPVU1Ui4h6qmriQYh6qdkw9cPwVLyakPGHU7NYkGIbWufFWbi+R8ECTcXvv8NZvHjfoefux+Y8fEw8CbKlgiaHhIZQiiRif0yVC2664+zhwk+I68Lfu8503lzWuZ5u00/DjspZe2dUROyS/Z3YK0RkY7L8Nz4rmvnz1dvOY9V5461OVh8AzZ2h40M7WjThixeJ34R7QEfGq3bZbz2r1T18M/u4uXblvik0DQdJ1bVIsR+WMeHGfI7CTJf7IcKpZmh4ATKyyb7bLbiTXDl+P6R0nb7oJeQNGg1GWCTAkzVfKXGcRK8EUAlZRH9rGHZbKSXLpc7OEW21y68L8R02tDM7qeXfg9SnxMKZo4UWTEnjyCwMUigo6K7HtWWzM3RbouKX1cZEnOvKtPdmxlJ3jZXCN1aqoKCHLXixZV60YeipSOaBLwKfrLt8q1WvootuowmwiOzI6mOyo0s1QttlBA2ROCQIXYDpAuDU0PaVhD2jId21LXPmoVFHkozqBAQxOw8AFvRTQTzYyvaWMMeglb7PHS4HwSQMjGFAqg+0ALbaQV+00070X0j6angXBbhFh7NhYDdaqCqirl7oz+sPTf6aFV1a0iN1MPXUq8WuRUbeydxOYV5K70MK/wB5oE81v1IJ1/n1n6ij83Od8R3qxY97jC0zHjt1cbySfz6vFnk8mY8GAvgjv5xetJPh0OAnBhQJ1Rp/CKRFiqCgqaj9yP1hUqxSk1PP4MHT41bIxw3aNiO7CB7yye+N1q6cOdzGeUm79UvLypmZMmKcQ4x42WTIRkKILGysZ9gdSoCkEWrv6rvjM/4Y5+HrnImsJqWG2BwF5NPCxHLjPawSKqjhPar7PHY7RX0vT7dmfZ4fb68uuuXD8Fdezn1SphnqqdlxMmEeqs3k1ImTC8FTsuJBg+Cp2MO+C8FOxhwwfBU7GJE01m6Kl5rIsScoJqOOIZZUQFgTxQrNtG4hX9m9+m1cfZ7XXhwRaJyD+AatHDp8E02AcfgLTPGmMjqxf7tRxlpOI3K7vLXlvus8R36T6tnX+TsXWHxS+FHGuOHD9iwV24ynEC142KlVIIvt6dlcuXO36uk4yKOZydlY+tQyYWmSZGiySwS5Ky5HC8PwoIjEMaTIvCAbdfXxCsaY0Pw+fBnhysPTsvi4mjyIxEG4o2J4Ha8knG0e4lrlhfwCmmMPnDUZINHCCRcVeF4ZVEWRjv2RDAIVkiIIvwj2X2bdlNMfL2mn/CqfD9ArEa5LV6rIvQI9mQjrFRXLw7Iwv1WK+ZiKT4aUH2Ejw1Wafh+/IPCDUWLoooO6ggPxoY8KoV6PaF/TREhM4iDcIMv1QRbz1QxJc4sA0VlO9uIbKmnkPNko1kiZ16xTQ5JJnQl0ZCNwbpoITln87Hb9y/0VNNWCx2E760E4qIr5f3Y8Dn0gfkoVTc2F+rbWarb3gHrqNvTO5PJEeNz/AAE/f8p6lwjwogPqJpRnfM5kibvn1zhN1hjxIh+zjIT6Wqxjk8+y9mGV/QC+cAVo+jqIhwoF+qLebZUQ69VBegq6ifsR4xWa1FOHlrV9ZlhXCAKLHxFeIC57ZwN+036LdVdfV6uXL4Z585Pl6XpndPpOBjNmcxaorY0EW4kY8EJYKpPEOFnOzfbb03r3z9fjx/8AavNfdbfEdPyjBy1puTHHpGdHPpWoy9kjRmIY4yrcQRDskZuHoFxtrrxsnx8OfKW/L0WHQp3A4V30vtkZ6NHH5VmYe03D5L1y5e+OvH1WrMfK3CQWlBHTdazf2F/Cl/AIIwzMEcLuAJF6n5rT8Uit+FIz7FKjqG2t/kY6njRWc+ypA6zs9dT8uL+O1bh5diIHHtI3i9vVWL73Selei0DEC7AQfC165cvfXSeqLkOHjwLsAJG6ud563OOGy3O1R5KzFVHkYsBexPTQX8JXZPbNyOigmaFwPs24eoEXFQYfMkOopy7rLGaMK2LOxVVbcImBG1ukUo+KNM/yq/7dVYi8lujIqgqDmWHDJOv1ZG9fFSOihPslcdRNGKTEP27eFRRYvA1VHRRNQmHIJJWcAdAK1PJiQpN2Vlcdpb3iNlDDI48wOOOSMp+da9/Jsp5USLlcd4+Ap4TY0QsYm4PtAoa+wA3q6GCTOH/B8zD8tTRLY9O/pqgoivk/dN4GU+giixSfaDUG3EeKFD1qPVWW47juqnMWocxR3+/5b1lPNhu/8ygy+/XJOT3v81sdvDnNEP8A00VPoqxjl8uYyRdUT6zovnYVarqKMEoCgq6h90PGKlaje5W5q1vSNPOPpkKwzSq7JqDYyZDey7Hs0ueNmO2yqLdO2u3q914zGPZw7Ox5S5P1TVNSOrc2QtNiAnLmydZaOHHMKqO0ZEDHi7NdqgIBtF2tsPbj7Z9WL6/o9A+J7oYF0yUalAEjnbJ0yPF4yDIB7RVI1N16Orord97M9d+7pH7zOU9KmMWoR5mKywLkXmht79vs+AMXEgBuVZR09VcOXPXTjwkdpo2s6Zq+nQajpk8eVg5C8UM0ZurAGx9Irm2umMNtNqdlwwxRdIqzknU0RQjco8lXavWFBQnhBHlrFq4Vo+I8IO09VS81w7sGRbdW+kuoa0BG1TsA29NXsKU/aA7LgeAVdKSPFIYS8YcHaTTUxowMqrcDorNJDPj4eMp+cu8eOrIrM5ryU/0vq9iP8lk/3TVKPiHTbfCJWYlWb3uK0ht7dFQKTsoOdyRw5uWv6QPnUUjTOyj9s3h+mjNMxjbIHhU0VfFqqFoAUUSoHQrxlD9Yb6iokxirg9uzD6pAomEkgkZrpPwj6tr0MPjVlWzydob7wLUCtVQXoEoIMi/ZyDwA+ZqKpGoNrD9rEhP6IrLcdZ3fzCHWc++6TRdZj/e0zIpVZXevKJu9PmuQbQ2r5YHiExX6Ksc+XyyWHFk469c6ehr1R0g3CjIoCgq6h90PGKlaiKHmVdNXGgk02PUSEeSEStM3C/avw8KIwWwt7Wz2vBYVNWxNqHMfN06Rw4sM8GA/EIsaZYuAcWzjRQiH2R7rEG3jq7UxLNNz7AuNkSZEOLkdky4TnhGVwE+0ynh9m+2zWueitf3J4ehcod2jTYE2Rmavp2p6rlsDkRZeN2jObF1HbsUm7S/SL1qcR7ryTEmi8t4OlmQF8dLFQkUQW/5gEIVCF+ta53mr1W1v/jJTe1x56x8kPTU45dx2+CrmKl+KXobb1GgYz3IIO+s8rizyuIJseHjY3dvdXqFc+P8Add+i8piudSlU+sHbXRk4awm5iFoGnVImJuVPTTBSy9QjBuGFj1UgjjzW4gwYBQLXB21RQbLm+NkmRuNrEFLbLX2bjV1Kx+Z9Vzzy9qokuqthzjg4bDbE3+2+lR8o4P8All8FYi1YvVQlAUGDm7NTn8KofWKkaZeV975B6qrNMgP+ITxGhq+KqloCgTaTsoHiKXeFJ8lDDeFuqgLUQGgbegQmghmvwv8AqH0EUqxSqDa07bhReAH11luN7lmXstSlb62DqKfv4M6/TUGXzxMZ+fNelJuZNUyzcbjfIatRjl8q8Y4s7EH/ADb+YE1atdHRgVQUVVz/ALryis1YzMqHAU4M8+VLjuwdD2a7bCRzdW4gd9Ra1tdk5ZGJh5WFlqMuMcHZoXYEAja3Fci9yb7Qei1b5Z9EiTR9ciwNVTIx8uTNy4RcyxEmM8RPaKY3VLbLe4RfrqSo9K0fWOWNO0aHU8pWOoaaWEMkkPZyFybiFkQMxQSPvO3proIsPvn5iLr8WuBhy9qEeAiQsIgT2kiktwkru31m8qO/wue8HVI0yMCUS4bb5hcDiH5gv0jprXGeFrRx+Z0BDI1r7jVsSVfg5pR/ek21F1v6Tr+nLG+VlzrwRfmL7Rv1WFef2cu3KcY6T+3jtU8nvHxXnJXGLQ3tfiHFbxWt6a6ZniOfYk3OOgyx8ccln6UYEEeT8lTVZGTzbi3Iju/h3D01U1Ql5pb81beWrpqjNzFktchherKWqJ13NjYss7An3hfZ5qbEJ/rTUYwEMgKr0kU8Cnq/NWTPpeckjqyyY8qkA23oRVvwn1eIYX+WXy1zjVWKqEOygS9BiakLakT9aNfQTUisnLt2g8QqlRRn7aPxn1UGhVQo20VKsaKpeVgiDeSbDz1FQyaxjx+zBGX/AEj7A+lvSKmmqz6xOx+6jt4eM+tqnZNIupvfanD4Y3YeglhTsanizUkNrhz9UgI/k/Nb0VZVSE3F12jcegg9RHRWkMJ9NEB3UEUm1W/Ub1UqxRqDb0rbhJ4Cw9NZbjU0timWx/5GSP3seQfTUVla9J2vM+pSfXz8hreOdjW+Lny+UmOL6jiDqZj/ACGpVroqrIoCgq6h90PGKzVjm9bdf8PGV3xn2ukWlfdWa0yfZB2eeojY0vV8uDs4sGMJLsVZQqlwW9liptsuK1Lg6LHmz1yUyMkvlZIW8cpkLoybjxJIeLZXSXE1V1IS5mbHNkwSTLZVVozwLG5NlN9uxRclevfWb5qR3ODzXHhYyYmMgyCh95V4Sz2uWa1hc9NdJyRdXmvKiUSTsiWUAJtIHg8Jp2VGnNeVmOqxyEhjbfZRt6AN9Z58siya38jmNsbETERieEcT2+tXL08cl5fWnO7f9FJeZm4gGuvhrteLKReYEZyzNa26sYuifXuzjaVpOGNQSztsAA276miD/WWAkYd8uLsy4j4uIEcZ3KSOmmwWsjXoIMeTJmfhijBZ22mwHTZbmmjnH5/xA+WuV/h2x7NEgcOZoyAeJCNl/Bvqd1xmY3OudqM8qY+L/hjIwizDdVWMDe6ne1+qnZEmp65Gg7IliZVcAmwG76a12JPLAwv8svlqRamqoQ0CVBjaoP8AHoeuM+hhSNMjM+8Hi+k1UQJ96h8NBpDdVQ9WSNDLJsVfOfFUaZWVlSZEnE5sq+4g3AVi1LUVRBQFAUFvFzCCEla3Qsh/hbrX1VqVdW28RG2xB3g9VbQ1qCNtx/Vb+E0qxRqDb0j/ACQ8DN66y3Ghi3E5P/Ll/u2qKx9RYtrWU+/iypW88pNbjlflewhfU8bwcZ/k0rVb9VkWoCgq59+y8orNWOX182fH/s2/vGrNaZdx01EPjBZt4sd4BteitvTdSmEqqV7JhsDoPaI6FLG+zrrfHkzi8M3Gx5ysUSoXsZHLdINz7x2L4vPW/BYmGr5LNaJWBN1DgAkL1gURPiwswDZUjyG9wrtfz9Fag3NLy4oZhJf3BsA2nzVy9k3J925ci5JqHacRYbW2+KuljnFcZIJsGDdBG/dTVUNV16PBx+OI8czC6Ib8Nr2JJHV1VzvMk1zOVrS50ks2QDE7xhWCO3C7jZcru2Vz1vMNbVFfMgkdEURcIk4AeBuG3tMjbCfJQLqHNGoZsknaTumOLlY47KOLoN7XIp5TFGLMZW7XgWcP7/EoYjo322UV0un8x4bYapMywSICOzsbWXqPSTTUNTV0z2eKIqgVHcq4DcQUHcegiqJMP/LqPHW4lTE1UJQJQZGrD/Gwn/lt6xUjTGzffHl9dVEC340/WoNEHZVRU1Ccs4hHux7x+kd/5KxyWqlZQUBQJQF6YCgv4s3HFwk+0llPhH5p8m6tyqmO0A1pDG3+Q+o0ooVFbejf5P8Abas1uNLGH2p/Uk/u2qKwskH8Sl/t3/jNbjlflo4P/ucH6r+qlarfqsiiC4qKgykMkTBd42jw2pVjBz9PXL4DxlGjBVbKGBBN9u0W39VYaUzoLW2TrfqZWHpHFTA1tBktcTxHwfa//wAdMCro+TGPs5kJ6lLj+JFFMEvwGbcMSjkbm41UjzkU8ixFFqcABRoynSpliLbeuzXNanKpYtJLklh2yBl6VikQt5gTWryTF6TLmhghXBilWQvxOvBdXFiOFjtt11yu7rX0QZ2q8woOEYbQmxDkRswJ6CjW6KXlUxT/ABTV8YcbRlXkBBZlN/CQKyYy5Xkv2k5YlvzzvPR00VXLbyNovvNWBgd+Ky/u221cDVMjcRG9dp/3UCiQklmFx0jdQKJL+zsAv4bUxF3TMqb4iNBdY2DDYAAfZJ21fKx0+J/l18vrrUZqWqgoCgydW/zUJ/Rb1io1GLm+8PL66qK42MvjFQaCm1rnqrVGYxJdmO8kk1yqEoCgKAoEoFoJMYkS2H5wK+i49IqxYuq3EL9B210iGtvHl9RoKXRUVuaKL4f7bVmtxqYikzkD+rl9ETGosYGcCup5AO9chwfJIRW45X5X8E//ALGD9V/UKVW+DeqgvQN27jUAd9xsoGNBjO13iF+kqSvqphppxMM/8Nh4n/KKYbSHCxD/AFg/aH5KYu0nwGL9eQfumphpDp8HRK/lUflphpPw6Pom86f76YdjTpo6JlPjVqYdiHSz0SRnzj6KYdjfwt+gxee30UxewGnZKG6cIPWrAfkph2OONqY/OkPik/8AmphsNkxtSa3GJXA3Xdm+k1MO0MOLlg3aFmPQXQP/ABBqYajbHbiu2NHxDpOPF/QpimSQI9i8EYtutDGn8KrTA34bB/OxInJ38QcDzKy0EyQwOw7HDjWQjhVkM1xcWuA0jLuPSKDQjjEaBN9htPh6a0ycfRRCVAVRk6v/AJiHwBqjTFzT7Q8taRXHvL4xWaL3QPJWqM0+8fHXOoKgVVLGw30gd2R6x56vUKMeQ7rHy1eq4d8Fk9CX8tTqYa2NkKCWjIA2k060wkH3yeOkSLcP3a+IequkAx2jy+qlFMVFb2hj/BfttWa3GzpcfHmMOqDJP7uPIfoqLHPa2nZ65qCbuDMmG3wTMK3HPl8rWD/7hB4n9VKN3Zbw0QtzegTw0CUATc0BQHRQFAUBQXtElwotYwps6KOfCjmRsmGbjEbxg+0r9mGexH1QTQehz4fchnZOozyajNiqFRsHHxYXgQAxMzot47SOsvCvE4W46Omgy5OW+7WaRosTXOyQ4AlxsqfIUF87gQmGaJoF7FeIuL8Zvagsryt3YYnM+jY8eutq2DmZ7x5LO8UePFjRSAA5DDs3AlW5BUigly+7Ll/UtSTG5Z1Lt+PTGzY1Dwz9tlxkceNEFcSJsJPtrstsLUFPJ7stNwZeYsTM1cfG6PqGJpeGRwxRyyZYB7WQMJGCIW22PXtoHaz3O6npONlZmTrOIuDhxPLPO0c6uAmSMYcMQV3YO5urDYV20GRond3zLrWmRalprxSY07ZgTikdD/gVV5OL2bDiDDgudvgoLmo90nPeBBkTyLBLDidp8Q0WRxcDQvHG6WYKSQ0y7tlDGXzByPzVy/F2msRRYt3kjRGnhaSQxSdk5jj4uN1V9lwKGNrU+57nPT8KbJlkximMk0udZmVIo4DGL8fB7fF2o2AbNt6GOU1XlnmLSIoptV03IwopjwxPMnCGbhD8N/rcLA232oM00CVAUGVqv38fgDU+rU+GHme+PGa0iBfeXxipRdPu1aM+T3zWOSErI7Dup0WPVebAksSzQ48Ekro4utzZFv8AvV5f3PZeHDx81x9/LOL21eTtIOw6ZAf2fyGvjz3+3714u9+5snImgOPa0mLyK35a1P2fdPqs9l+6o/d1yyd+mKPFcVr+Z7Y1+bl93Gd6PKnL+icrNlYmN2WTNPFBGeI7ASXYgbOhbV7P0v2fZ7OVnL4kdvT7OXLl5rySH71a+pHrXI9kYt1CtxDW3jy+o1aK3RWVdBoS/wCAB/Sb11mtx0XLMPa6nMv1cHUH/dwZm+iosc/ztCYOcddhN7x6llLt8E7VufDny+TtFx1yNYxonYqpEl2XeLIT0g9VY9nLJr1/ofrz3e2cLcl3z/s3MnHkxp2hksWWxDDcyncwq8Oc5TXP9r9bl6fZeHL5n/moq085RagLX3UBbZu20C2IFAhoDhNADw0BY2vQHUN1AE0CUBQPillhftIZGik3dpGxRrfrLY0DZGaRzJIxkka5Z2PExvvuTtNAAkCwJsRYi53DooNTTeauZNLwMnTtO1KfEwc0MMrHiICyB14WvsvtUW2GgI+auaI5UmTWM0SxKY43+IlJVGtdRdjsPCNlBX1HW9Y1MwnUs6bMOPxmAzuZCnav2j8Jb6z+0fDQamb3g8652DPg5msTz4uUrJPG/B7auyu12ChtrRr09FAzmPnvmrmTFx8bWc45UOK3HEvAiXfhCcTcAXibhFrmgwDQJUBQZWrffJ4jT6tfRg5Xv+f11WYhUe2vjFKq8d1WjOY3YmudQlQep9xkMccurZ7sFP2OOhJtv4nb6K+Z/krc4x5f2r8R7XiMGBO+vnet46ui1d5WS3qjx/5iM5fhtEwAfaZ5sh18CqEX0sa+h+jx+b/o9n6k+a8YhG29e97VmM+wK1ENk3+f1GggG6orotFH/wCuTwlvXWL8tx2HIMAl1jPv+Zo2sSfu6bPaiuf72YBB3mc1xDYE1XLt4jMzfTW+Pw58vlU5cmEWvYTkXBMi26+KJgN9c/fN4V7/APFcpP2OG+Pn/it/VZ45sy8Z4ljRY+LrIJY+bitU9PDrxX/K+/j7Pfbw/wDWZP8A4U66vnCgeBVDrURq6bo+HlaBrOoPkSLmaaMd4cZUHAyTTLEzPIT0cWxQPLRWSVoEKm970Bw0AR/8KDX1rlyTTMXFy1zMfPxMp5YVyMUuUE2Pw9ql3VOLh7RfaW6nroMcrUCMKBKC3pmk6pqmT8LpuLJl5HCX7KIXPCu9j1DbQVpI5I5GjkUpIjFXRhZlZTYgg7iDQNoCgKAtQFqBCKBKAoCoMjVb9uv6p9dIrCyff8/rNVIjT308dFXT7oqjNrmhbXqyK77lFmw9AxVMTMc/IdxbpCsIxf8AcNeL3Ttyv9I8vtm8r/SPV8DOJiUCNr9VfI9nDy8Mq+ua46HH+3jrl1U4alJewdwfLVyjxnvl1B8vmmGFmLDEw0UX65WZ/Vavt/47jZ69+9e/9aZxcMBa/i+ive9CZPdFWIjk3+Q+qlIiqK6XSBbTYfDc+k1itx33dbi9rncxydGPy5q7n9rFZP59FYPfxiHG73OaUOzjyzKP/VjV/wCdW+PwxyctpuPLl6hgY8PD2s0yInGeFbv7Iu3QNtTlcmsXlOM2/EdPqGm5+m5Hw2bF2Utgy7Qysu7iRhsZfFU48pZsThznKbPhWuK00Wg9c7vO47TeaeVYtdzdffAad3WOCKFZAqxsV9tmI9rZuFS1ZG8/y16Ne0XOCX6BJAg9Ugpq9TV+XSWKHIhxeb8QRZKqs6FSA6owdQ1pTuYA07HVTf5ZddYf4fXdOl6tso9RNOx1eW848sZ/K3MuRoOdLFNkY6xu0mOSyHtV4hbiAO6mpY6qHuE71ZMWHJXSY3SZFkCjLhDgMLgFWtt2006oZu5HvRi38vzOAdvBNA9/M4NXTrWhzhyb3jay+I/+icrTxhRdhHDiXmhEYtwrHEZWWMXuTw+8Tc3NNOrksvkPnjFRnn5d1ONEF2ZsWQAAdOzipqZWDGskrKkUbySMbKiKzNe1/dUFtw6qaHtiyj30aM9Txyr60FBqcsZWl4OrR5GoTvBHFZ4pEjjyE7VGVlE2PMY1ljNvdvvseiqitzBn4mo67qOfjjsoMzJlyI45JUZ1WRywDHiO3bRWd7B3EE+Ag+qoAC4ttv0bKDsMubk2XLxseHCRYYtNcTT/AHKtm/BhlfjVi0lpwRZgPaPSKqNccvcmvo+D2MePNIuYmPn5IyVjcojxI7BnyE4BJdrHsWG33l3iKqa/yroWLBnyYGKuS8e2UJmBPgU+HWRGZGeTjZ5CylC72twhrm9BwRU0DaAqAoMfUz/iB4FPrpGmFObuarMMj+8Xx/RRV1vdqozbVzgktZST0Ctq+jOQtKjxuWdJgkjViuJHIeIA+1JeQ7/1q/N/s87y9l/1fN9t/uruYMPG4BeFN31R+St8eMxwSHBwjvgTzCt/j4/Y0w6XgHb2C38F6l9XE2vmfvJlTJ541lox9nHkjHTp2QKqesGvsfrcJx9ckfU9HHOEcw4t6fUa710PT3KsEcm/z0qxHUHUaattOxx+iD56xW49S7mMfjwuf8gi4h5Xz0B6jIn5FqKw/mbxRD3x6yQLLNFiSjxnGRSfOtb4ufJwfK8qx69osre6mbjFr9XaqDTnNlZ5TZY9J50RF0TGjYANj5jQwdfCY2Mq+IMqny1x9fjlXyv8ZsvKfSOLFd31jqDS0zmTmHS4zFpmp5WDGW4ymPK8a8XXZTQbEPef3jRn2eZdQt+lOzeuhrQj73e8dYzfW5ZLDaZUjk/iU0w7UJ3094sZB+PgcjcXw8Y7v2KmL2rldd1rP1zVptW1F1bNnCK5hjSFAI14V4UQBRspha9GxPmK5rghiil03CyBEixhy08TEKLXPA4FzTqvZpY/zKa5Yceiw26THmZSn0k06nZoD5l50VS+jT36ezzb7/142p1O5ZfmbglxJoDpedG8ilQ3xOO42i1jeC9uvppi9nmvdfzji8p83x63nI0kQilRjAod1aRSLqr2G/YfBTGZXtKfMfydKPtZ8pT0iTT1cfyZhUxrYsL33d2+TsklxeI9M+mSKPQ8lMp2hp7yu52diMpdCcnpfClX1wPTKuxwvfBrPdZn8sQnlmDSl1b4uIl9PRll7IBuO4MMQ4d3TSJcVu5bVe7LB0nU4+bINPfPmnQwPqCMbxLHYBGEUoADcV9oq1Jj0MT9w2W1hp+gEG21cuKL+IRVPLXhIvLXcXlL/wC16cCdt4dUx7+IWyVp5PBW7r+5XLt2enst93Y50bgeLhyJKbTq8t75+ReTOV0wZNBmlWbKkdXw5nV2EaAfaCxLcJJtc76sZseWkmqySgKisXUjfJbwAemrFrDk33ozCRD7VaKtvu/26qtRWx8Zn9q2ysyKe0LNEwA2MSL+AbKo67D72OeMVI41mxmSJVRAYF91RYDYV6K8d/Q9Vu5/9uF9HGtmDvz52Qe1HhN44WHqetfwuH9Wf4vFci7/ADmlfvNPwZPEJk/ntU/hcfvWf4nH71dh+YTUBbt9Cie2/sshl/iRqzf0v6pf1J93l+XlSZuZNlSAiTIllyHG+xkYtb+VXskySPZJkxRmHR4/UatIcuxa1ERSe95KlIjb3aiusxF4cOFepF9VYbezdyGGDyF3m5pG1dHkgB8eNkOfUKi1j/Ntgdh3m4+Ra3xemwPfrKSSR/za1xY5PFoJHiRJF2PEwdT4Ua49VarLtNV1vP1eZJsphZAeyiQWReI8TWHWTvrPHjI5+r08fXM4qQrToUUCqVJt0ncKCVY2YXWx/aX6TVR2WLqXLid2uo6MqTQ63kTY+RIxWJ0neOU8IWQPxKkcX5pG8k7ehg41on+qdngNRUZAvt2ePZQHDsvegci3ZV4uG5AuDa1zbpqjt+87SsHDnwZsLT/wrHmOREmFJEIpysDKFmYrLMkscgb2JFtex30Rw7LUU2xoCx6qDp+R+Woteyc4ZWUMTEwIFnmk44o2PaSpCih52SMe1J0nwDfVTGJq2JLh6ll4T8XHizSQnjXgb7NivtJc8J2br0Ip7aiigvaZo2paiJ5cOESx4gVsh2kiiVQ5IW5lZAS1jYDbQTZelajgxo+ZgywrNH20ZYbDGAt22E2txre/WOuqjMmh4JGV4zG43owKkX2jYdu6optgNwoG0BUAd1FYWot9tI3UPVerCsZ6EEAvL4hT6i9GAZEDDiUnaOsVaRfCYhWyXiPQpHEvnG2o0hGDPHAoeMjZtI2jb4RRMQNAFJ9riBN927wVUKIhQwvYihhRAwNzbhIBW2/w3qGHrGSxsLgC1/Cf/hRVfNitGXuOkEXF9xoiFfd8VWIhc+0alIaRcW66K7BF4Y1XqAHorDo9+7mcHs+4vn7NI/zMGfGD4IcE/wBOolZPziYBXXuXM+2yXEngv/ZSB/8Aq1ril+HzsB7Ei+P0itsOjx24seJutQfRWYtSgVUAoPae6DvO5D5b5WfS9Xxljz3neSTJbFGQJFa3DxMGU+yBa1SxqV3Y72O5zI+8fS9v9bgSIf4HqZWtiZObu5DLTaNBdPDG8Z9MFMqbDQ3cPmGzY2hkHpXI4D/KWOnk8PBu9SDlzH55mi5figg0pYoDw4sizxBjcuQ63BPg6KqV7Rg91/cnk4WMYoO1kMUZaSHUouNyVF2KmfYSd+yp5XImbuN7rpj9jHqqX3GLIWQegvTTrEc/y98hy2CZWtREAAF4jKLDcPuTTTqydT+XblCLHlki1/OhZEZlEmGDcgXF7olNOryTu75Kk5w5g/CRnx4ASJ5pMqVBIoVAdgW6j2mt07KtrOPR5PluzL2h5n0uXqDo6fwSGp2Xqn0nuF570nKefS9W0WQyxmKVJDLLG6XDBXjlWVGsygi42EVeydWXqPy7d5mRlTZUnweXPO7SyzLlMC7ueJmPHH0k1ex1cdzn3Wc58oYMWfrWHHDhzSiBJkyI5vtGBYDhUA7lNNMVOVu7rnPmjEnzND01szEx3EUsweNPtCvFwgOyk2BF7VNMdLgd3HfBpGBqOJh6Fkx/iKxJPLH2TMEiZjwgcZBDce2rp1XZeXedo48LGfkLNTTsZYY8jEjZ2SZI5UmluwRiGyHiXtGJbYLbrU061U7zdO5n5n15daTk3P0aaSFY8yPsppFkeP2VcWiXh9iynxUhZXnmdpufgyCLNxpcZzuSZGjJ8QcA0RUoCoA7jVVz+oH2pb0hWS/TQLjD7Q+Kk+RdT7xP9ug1aRZooE8sfuOV8RtUTSPqE597hf8AWUGrhqI5x/qYz5CPUaYaY2oMN0UY/e/LQ038QyCdioviUfTeiaa88s1u0bi4fdGwAeagH+5bwClDV92kED++aUh0K8c0a9bKPTUqx17Vh0fTnd1gHE+WjWJSLHM0/V8jzxSRj0R1ErL+cLAaTlzl3OA2Y+ZNCT/bRBv+lWoj5XUWkbw2rbNbemHiwovAtvNsrMKtWqoW1AtiaBygg3oOgwNF0zJ5W1HVZM6SDKwGRPhWx+KKV5mtFGkwkvxsqsxHBYAVUc6yA9A81RQPZFhs8FAlhe42HwbKCaKeSMXEkiAbbq7C3mNB0GtYnNmhrAMybIxhNcRlMkuAyBS6PwO3BIodSyNYi9VJaoJzfzXHG0cetZyxuCroMiSxB2EEX3Goqtout6romYM3SMl8LLVSizwsUYKdhFwemi66aLvk7zEAB1yWW27tkjl/jU1MNaOJ31d4PGAcnFnJ6HwsdmPmS9XInepv++/Oittg02Uf/iovpThqXjFnOsTnTvO1rm3TocDPxMXGjhmWftMYShmZFZVBDuy29s7hTFt1e7ve93U+StMn07Gwo8yHImM7GR5Y2UlVUhTG6/UG9aWErsIPmWzS449HcX+rnTj+MSUw7NCD5kEKnj0vMU/o5obzcWO1Oqd00XzPYEb/AGmmagQN4+IxmB88CVOrXZ593td6WPzx8DFjYUuPHiPJK02Q0TSsZAoCDslUBV4ekk1ZEtednfVZJUCMbKTRXO57e9frH0VYcmW26hEmILljSC2n3i/7dFWkWKKYwoiJxRETCqI2FQIBQSAWqhX+6fxVKGr7tIIWHtE0RY01OLPgH6YPm21mtcXUSHfWXR9h6dpDYfy+Np6j225bna36U+K8h9L1E+rM+aLTWzO6meZRc4GZjZBPUCxiP97ViPjJhaQeEeqtxmtbR2vjFfquw85v9NCr1ELQej8jdyHMvNugjWsXMw8TFkdkhjyGkLvwGxayW4RfZtqWrI2JPlq5/X7uXTZh+jLKv8QNNOpkvcP3rJph01cPHfD7f4opHlRgmXs+zBuy32L0Vdh1Y83cV3lxC50WRz/y54X+gU2HWuL17RNU0PVZNL1TGfEzY1VnhltcB9qnYTQxYxuT+bZsWHLXQ9QONkKHhnXGcoyMLhgRvBHTU0yiTlbX4x9ppuUo6RJjzAeX2KqZXR8/cwZnMMWGGwMuD4d5Zft1JWMSpGvYQcEMf2SdldS9221TK4mSJorh1KW33BHrAqCLij2G4ANrEkAG+7aaB6qp91l8jKfUaGus7utQxtP1jK+JyfgFysR4UzQ7QSRt2iP9nOsc3ZlghBuu0XXpqjI5qycHN5m1bM06Ps9PyMuaXFThKARs5K+zYWvvojJKiopoFzvoOg5b0/l2XTtXy9acqcRIBhqHkTiklZwRaJJGPujosOmg3JeU9Ew8LTtR1KXMwtPlhX49OKN51kkmiRHjPAFZDHI8mziFltxXvaozO8jlvl7lzmI6ToepS6rFFEj5ORII+ESSDiCIY9jWQgnx1FcqaBtAVAyY2ibxGixzmewLt4WJqpWc26ixNiD2CesmkFlfvE8vqq0ieimsaIic0REaoY1QIDQPFUK/3T+T11KGg+zQRdFRF3RUvqCH6qsfRapWuPy6aCBsnJhx0F2mdY1Hhdgo9dYdH31+FQfgv4T/AMD4b4TwcHZ9n6qJrnu93SjqndlzLhgXY4MsyjwwDth6Y6EfBEv5prpGav6M22ZPCGHlFvoojSogoOp5Z7y+duWsH4DR9Q7LCLl/hpI0lQM3vWDDZfpphro8f5ge8SM/aHAmB38WIq+lSKnWL2akHzGc2ol5tM06VhsuBNF/C1OsO9WoPmc1yNryaFjH+zyshfQeKnVezzHnfmaTmrmXJ1ySI4zTpFGIWkacr2ScN+0axN6SJa9g0P5mNOwdJwcDI0jMDYePFAZIJYCrdkgS4Vxsvap1Xs2Yfmd5ace3ianH13TGe3mIp1O0Wz8yHJJQCU5w8D4aPb92SnWnaHHv87rsiNxITxEbBNpzEeI2Y0yr2jxbus5j5a0fnh9V1+JDp7RzCIyRduqSOPZPZjwXGzdVsTXtI7xe5HLHFL+DEnolwJkP9y9TK1sSxal3E5u04ugOfCGi3/rQLTKmwn4J3DZLf5HRAW39nnxx+gvHTyvh57308t92mlcu4eVyvDjxZs2WiO2PmLkjsyjlhwLLJ0qNtqsZuJO6Dum5M5q5VfVdVmzWzzlSQiPEkVVREVbXSzG54r3qWkjsJfl05Cf3cnV4j0FouP8A6Jp2XqpzfLlyedia7mxWFrS4q+Mb0Trp2OqnL8tWiOAuLzTZibDtMdRtPRYOtOx1eZd5fdzPyTm4cL5sWfDmq7wTxAr923CwKkt0nrrUrNmOLIogoIcg2TwXF/FepVjmcw7uu3rrSVTbdUVYxlPZirETx37RfL6qVYnqKa1VKieiImqhl6gFFA8VQkn3TDxeupQ3/h0KjG6ojV5fS88r9Sgec/7qzW+L0Huw00al3jcu4hXiRs6F5F/QibtG9CVlt9y9N6MoM7EizcLIw5fusmJ4ZP1ZFKn10H506jiPjZE+M4s+PK0bDwoxU+qtxLC6U3Dlsv109R/31Ua9EFjQSADdcDxkD10Dgvl8W31UR69yzzRybF3drp+bNFGIoHjztMYMJZpj2hLLHwFZWlLxlJOMGPh6LbQ8eEbWHFvttoo4R10DbeWgkQDiUcXCCQCx3AX31Udl3gcv6bpixthYr4YjzsvACu7v8RFjLE0eUOP6/am/D7O61BxbLsvUU21vHQaWgcvZeuZk2Jisizw4s+WFe/tjHTjMa2/OfcvhoOjn7tNXxMRsmeeDiWSGHgVJn9uaOGQBnSNkTh+IVSWI2g1UqjrHd/zJgTGPJhhEgyVxFRXBu8kxgjYbACrsLq3VtqDmXiaKR42FnRijDwqbGilWWVCCjslulSV9VBskc5adHjTyfiONFlFRiOTMglLi69n9YkG4tvoav4XN/PSexjaxqZe7BUjkmZrp7wAXb7N9vVVTaRe9LvIiPscy6jY7g07tu/WvUa1ja5zDruvZa5mtZ02fkovZpLO5Yqm/hUbgL9VEZxoG0FbPa0J8R9RH01Fjm8ojj8laRVf3TUVdiWygVUSKPtV8RosSmoqN91VlWlkIqwRdoaILmoHKaKeKoJPuj4x66lCN914SKFR1Bt6AloJX+s1h5B/vrNb4vaPlo0ps3vNTLtdNNxJ5zfrcCFf7ystPrejIoPg/ve0n8N7yeZcMLwJ8bLNGvUk57ZfQ9ahXHYbcGXCes8PnFaqNyjJy0HuPdFzr3TaVyguBzFDixaqJpDPLk4xmMgZiUIcK5sFNrVLGuNduOafl9zDYto7H9KF0PpiFTKupxpvcBli4g0VgdvF2wQ+krTKbEX/b3uJy7iIYI4v6nUEv5LS08nh8+d5umaJpXP2o6Zol00yBYBErSCYAugLkMGYHaeurGa9ywPlw5DyNMxJkztQd5IY3aZZEdWLICWA4CLG+6prWRFkfLHyuwPZavmxfrwRv6eAU7HWK2ofLfDlLFxc2TzGFBHCMqDjCINyJ7Y4VHUKdk6xiaj8s2ZBjS5EPMGG8cKF2EkUi7hf82Q07HV5XydyXrvN2snSdGWI5SI0sjTOUjVF3m9mO+wFW1Md7h9wve9peWuVgRQx5CD2Z8fMjU7w1vbQdKinY6p5u7jvyjh7OfTI8sLIs6SSNg5EiSIEAZHYB1Nol3Hop2OqKXlzvyiWEZGiSZq4y2gSWCGcIROchGFnHtRysSnUNm6rsOteea9ypzPoqibWtLysFZpCqy5EfArSEFiOK527DTUxVwNA1rUIJJsLT8jJgQ8DzwwyyIGIvwlkVhex3U1crsoOZeYMHmDT9XyNDDrp0UMUET48kci9lFHCZRMscbl7RnhL34b0TKrLzVAI8rC7HO0jDylLjJwWHxMUzZb5Mli7R8SPxKhHED7CnbuoZUmu896Vqek5uCuCcObJbIlXMUxtMDJMsiwObgGOULeXhAPHY7RsqjgyB0G9QNNAlBR1Nvs7eIec3/m1F+jnsg+2TWkquRdlHWRUI0VFhVCr96viNFiU1FRst6qIJIAaIiMNqoAlQKBVDhQJJsj8o9dShp9wUKbUHRaUnBgJ+ldvOaxXSPpH5TNJ+z5h1hl3mDDibxBpJB6VqFfQ1EFB8ifNJpBxO8xc23s6ngwTX/Si4oT6IxWoV4sboQ3SjA+Y1qo6BfaAI6emjJ9UFAWHVUQ/iQLbgFz4qoi7Nd9reLZUXQAR/voJ0y8yMgxZEkdt3CxHqoa0MTmnmXGI7HV8yIjcVnkH01TWoe8vn2JQIeY89SOqd/wAtElpzd7veWYJMeTmDJlhlRo5Fk4XurCxHtA9BqY1rL5R5u1nlPU/xPRpEjyjGYW7VRIrI1rgq3iphru4vmR5/UDtMfT5usmEr/CwqZDtWrifMtzSD9tpGC/hR50/nVesTuuf+UepRvwyaDGwtt4MmQH+VxVOqzk4/vR74X5703Bwfw18D4SczuzzCVW9goABwrb3t9XDWt3Wd9+DyXy1+C5WnT5J+IknE+PIijhkVRZldTtHD11LFld3B8z3KUjASYmpR+Ds8dx/ElTqdmgnzC93U44pRkKTvEuJGx8Puymr1OxP+8/czl3GR8Pt39vpzn+FZKmVezxnvk13kjVtZw5OVIY1RYm+NnghfHid2e6hUcKTwrvPDWoza8+ohCKDK1NryW8/kGz6aRpgym7GjJsS8UyjquaK0AKqBR9qviNRqNXQdFydc1vB0fFeOPJ1CePGheZuCMNIwUFm27NvVRXezdw2sxcxZ+kPrWnx4+kYoy9Z1SUzQ42KGdkWNzJGrMzlCVsLEdNTTGrp3ccun6Rzvi68sU+s6YNKTQ8yCaQ45OozMgm9nh4lI4R7Q2bdlNTGdh/LxrEmsviZer4kWFBrUOg5GQgkLmeSBMhjGjBQQFk4RxEXar2OrH1/uuXH5ozOU9ClTVM5dVGnYWWHI4jYcSSXCqpjNxJ1EHqrz/lv5ev06vrT9Pj/Avuz+78nXd/p8Z8NOX5ceaPxjSMHD1bTNRx9Vy8jTmz8WV3ix8vEikmlhmugYMEge1htt0V6Oz5GOZ7we7DUuS8XSMzI1DD1LD1kZBxZ8JmdQ2K6pIp4lXcXG0XG+rLpY4yUfZ+UeulDD7ooU21QdRCnZ48afVUD0VzbfYPy46P8Ah/ddhTMLPqU0+Y3XYv2S/wAmIUK9PogoOT597seUueceGPXIHM+MGGLmQOY5ow9uIA7VYG25gao8V1b5P8lslzpfMqfDOdiZWMeNQejijezeYVdGdm/K73g4rFMDO07OgWwjkeSWCRgBvZDG6jyMaSljKm+XrvciNl0vGn8MeZF/P4KvZOqjP3H97kHv8uSP/ZZGLJ6padjqzpu6/vNh+85V1L9iISfwM1OydVGbkrnmDbPy1qsQ6S2FkfQhp2OrPm03VYPv9Py4f7THmX+JRTTrVVnCbHBT9YFfXV06034jH/rF/eFEw4SxncwPiNNMLcUBegL0BQKCw3XFUJc9VAh8VQFAA2IIO2glE7gWFqupiIi5JveopLWoEoA7qDBypONnbo2289I1WU++jJ2Kt5WPUAKQXAKqwo+9HiNRV/SNR/DdUxdQ+FgzfhZUm+Ey07XHl4DfglS68SHpF6K9Bn+YPnebWzqUmJpjYjYa6dJohxS2nvjxsWRWiZy/ssdnt7N27ZUw1Qz+/HnbNXXhOMUvrzYZldYnU466e/aY6YwVwqqDv4g16uJq7rnzFc9atDAhxNMw5oNQg1VcnEx3SRsnHUIrScUjq/EFHFxLfovawpia5nUu9LmTL5nfmWCLE07U2zV1FThw9nGuQoAJCMzg8ZF34rliSTvrn+Gd+31zHt//AEOf8f8ABk6du39dzPv8f7Ohn+YznqTWdK1OLE0vEGkzT5UeDjY7xY02VkwyQSZM6LJxPLwTNt4ht6N9derxa5TmjvA1rmXRND0fPhx48bQPivg3gV1kf4yRZJO1LO6mxQcPCB5aSFrmJfu/2h66VDG3ClU7Gj7TIjT6zC/nrNWPQOUeUdZ5u1/H0TSI+Kec3lma/ZwxD35ZCNyr6TsG2sNvuLl3RcbQ9B0/RsY8UGn48eMjkWLdmoUsR1sdtGWjQFAUBQFAUBQFAXNAbaBkkUUq8MqLIvUwDD01RQn5b5dyL9vpWHLffx48TX861F1Rm7veQZxaXlvS28PwcF/OEqoyp+5fuqnJMnLOECfqKY/4CtBSl7ge6OQW/wBPqh648jKT1S0XWbkfLV3WS+5jZkH9nmTfzy9NRRm+Vru8f7vO1aE9FsiJh/LhamjNyPlQ5cb/AC3MOoRfrpjyepEppkUZPlMTb2PNkg6hJhI38MqVdMjNyPlS5jX/AC3MmJJ1driyp/DI9OxkUZflb7wluYtV0mTqDHJQ/wB29OyYzsn5bO9WEns49Oyf1Mpl/jiWmmM+XuB74I720OKUD+rzcY/xMlXsdWfkdzvexj/ecr5T2/qnx5d36shpp1Z03d13jw37TlPVgBvK4ruP5HFTTqzsrl3mfF/zOhalBbf2mHkDd+xTUxnTQaibwQ4OU+XJ7EOOMebjdzsCqCtyb00xiT6bqcY7FsPIEo9koYZA1x4LXq6uLOncgc9aoR+HcvallX3GPFmI8/Dappjej7ku9mCPjk5Vz/b22RFc2PWFYmmmK2R3ad4mMQs/LGqRk7gcSY38VlNXVxj6joetaYyvqWnZWCGuqtkwyRAkdALqNtNMVAyncQaIDQMNAw9NVlGaBLVQtqBJB7AHhFSrEbbx4BUqtflDRNS1vX8XTdNgbJzchuCCFd5Y7NvUBvJ6BUqyPunur7s9M5E0EYsfDPq2UFfU84D33G5EvtEabl699YW12tEFAUBQFAUBQFAUBQFAUBQFAUBQFAUBQFAUBQFAUBQFAbfDQG3w1QbaA2+GgKgNtUVtQ/D/AIZvxHsfhvzviOHs/Lx7Kg885i/8duBvxj/Td9vFw/C9r4fufbqr5eVY/wD4j3zfiu1+8PY8Xxe6/wDwex/N/Wq+Rg53/ift7P8AHd//AAO09HaU8jndS/8AHGw+B/1Tf87i+Et5OKr5Tw5vO/7VWf4L8e3/AGfa/B2t4bVfKeFAf6Ivs/FLeH4al08In/0rc8Px9r7L9hup5PCTA/0V8Wn4p+J/A7eP4b4fteKx4bcfs2vvqeSY7HRf/GvZ+Lf6n7S+3/Ldn/8AR9qp5Xw9/wC5L/x+/Epv+39vx3sD2/xPxHxXY8Qvbt/Z37+D1VKr2WogoCg//9k=;fontFamily=Times New Roman;fontStyle=0" vertex="1" parent="1">
          <mxGeometry x="210" y="60" width="81" height="60" as="geometry" />
        </mxCell>
        <mxCell id="0eAvDL_jHnbjMay1iFv8-7" value="&lt;i&gt;User&lt;/i&gt;" style="pointerEvents=1;shadow=0;dashed=0;html=1;strokeColor=none;labelPosition=center;verticalLabelPosition=bottom;verticalAlign=top;outlineConnect=0;align=center;shape=mxgraph.office.users.users;fillColor=#2072B8;" vertex="1" parent="1">
          <mxGeometry x="60" y="100" width="46" height="50" as="geometry" />
        </mxCell>
        <mxCell id="0eAvDL_jHnbjMay1iFv8-9" value="User melakukan absensi pada &#xa;mesin fingerprint" style="shape=image;verticalLabelPosition=bottom;labelBackgroundColor=#ffffff;verticalAlign=top;aspect=fixed;imageAspect=0;image=data:image/jpeg,/9j/4AAQSkZJRgABAgAAZABkAAD/7AARRHVja3kAAQAEAAAAPAAA/+4ADkFkb2JlAGTAAAAAAf/bAIQABgQEBAUEBgUFBgkGBQYJCwgGBggLDAoKCwoKDBAMDAwMDAwQDA4PEA8ODBMTFBQTExwbGxscHx8fHx8fHx8fHwEHBwcNDA0YEBAYGhURFRofHx8fHx8fHx8fHx8fHx8fHx8fHx8fHx8fHx8fHx8fHx8fHx8fHx8fHx8fHx8fHx8f/8AAEQgBBAFfAwERAAIRAQMRAf/EALAAAAEFAQEBAQAAAAAAAAAAAAABAgMEBQYHCAkBAQEBAQEBAQAAAAAAAAAAAAABAgMEBQYQAAIBAwEEBAoFBwkHAgYDAAECAwARBAUhMRIGQVETB2FxgZGhsSIyFAjBUiMzFdFCYnKCkrKiwtJTc7MkNBbw4UNjwxcYgzXx4qNUdCXTREYRAQEBAAICAQQBAwQCAwAAAAABEQISIQMxQVETBBRhIgVxgbFS8DKRoRX/2gAMAwEAAhEDEQA/APqeoCg5TnjvP5M5KxjJrecq5RXih0+G0mTJ4owfZH6TWHhouPmXvF+Y3nDmgS4Okk6Fo73UxwNfJlU7PtJhawP1Ut4b0HlqahqKe5lTL+rI49Rpi6nj5g5gi2x6ploetciUepqYatxc685xW7LXtQS262XP/SpiLcXeX3jRD7PmfVFG/wDzc39Kgsp3ud6CHZzTqR/WnZvXemLq3F31968duHmbLNvrFG/iU0FuPv8Ae92PdzDI360OO3rjoi2nzH98CjbrMbfrYmN9EdBPH8y3e2tuLPxpP1sSLb+6BQW4vmh70k99sCTwtjEfwuKKtw/Nb3jIbvg6ZKOoxTD1S0RZT5tOetnHo+lnrsMgX/8Aqmgsx/NvzSPvNBwW/VkmHrvQW4vm61QH7XlqBh+hlOPXGaC3F83q2Ha8rEnp4MwD1w0MWE+bvTD7/LE4/VykPrjFDFmP5t+WiftNAzVHTwyxN+Shi1H82XJBH2uk6kh6eFYW/wCoKGLUfzWd27e/iaon/oRH1TUMTp80ndg1rrqKX+tjLs80hoYsJ8zfdSxscvLT9bFk+i9DFqP5ju6RwCdWkjv0NjZGzzIaGLUfzA90D/8A+hRf1oMkf9KhiePv17pHtw8y4wv9ZZl/iQUMWou+PutkF15mwf2pOH+IChi5F3m93UvuczaZ5cqJfWwoYtJz1yRJbg5h0x77gMzHP8+hixHzTyxL93rGC99g4cmE+pqGLUeq6XJ93mQPbfwyofUaIsIyOLowYdYINUOsagLGgLGgKAoCgKAoCgKAoPmjv7+YjmHROZs/k/l22EuGsaZmrJZ5zJJGHZIuLZHwhrE7TfdarhuPnvOyMydpM/Nkknll+1mnlfjkbi23YsSxNMXT007OZFcRbGAIBZb2Plq4naF/Dc8f8Bj4rH6aYdob8DnDfjyfummGwhxsob4JB+w35KYaaY5RvjceNT+SmLpu7eCPGDUB2ijeQKBRInWPPQLxp1jz0C8ajqoDjFAvFQHGKA4qA46BOPbQBY0Bc0Bc0Bc0Bc0BQLxeCgOI0Bc0C0DfGKBLDqFAWXqFAtyN2zxbKB65GQvuyuviZh9NMNTJq+qxW7PNyEtu4ZpBbzGmLq1DzZzTDsi1jOTp9nJmG3yNTE1ci7w+fYvuuY9TS++2XP8A0qC2nex3mp7vNOp+XJkb1k0E6d83elHa3M2cbfWkDfxA1MXVqPv472o/d5inN/rJC3rSqi1F8w/e9GABrvFb62NjN646CynzI9799urQsOo4mP8AQgoOv7pvmH531rvA0rQtdycfJ07UXeB2WBInWQoTHwslvzwBtpg+nqiCg/OjvF1Ma13hcxaipuuZqWQU/U7Uov8AJArcZ5fKrmKZSkA/40qR28F9vootdJs2+qtMAHZQLQFzfftoFDONzHz0QvaP9c+c0CFm6WJ8dFNNulQfGAfooG8ER3xIf2F/JQNMGKd8EZ/YX8lFNOJhn/8Arx/ugeqpgb8Fhf8A26eTiHqNXDaQ6fgn/gDyM/8ASqYbTfw3B/qyPE7flphtB03DOzhcDwOfyUxdpv4Xh9co/bH9GmHak/CsboklHlU/zamHak/CYeieQeRT+SnU7UHSk6Mh/Ki/lp1Oxp0o/wD3B8sY/pUw7EOlP0ZK/uH8tOp2J+FTf18Z8asKdTsb+F5P9ZEf3x9FOq9lNWYs6nhVo3ZGUnpXydNTF1BLqHZuU7PaN5vsp1OxsWoM8wRgFUgkEbTcHyUw1aEgP5/8n/fVw0cQ6HHmNMNNLfpL6fyU6mji8Knyn+jUw0cR/R/e/wB1MXRc9Q8XEKYaOI9XpX8tMTRc/VPnX8tMXRf9FvNTDRfwN+635KYmkaRFBLEqBtJKt+SmGovxDDH55PiU0w2GSZqyqBBfgO9iLE0hrT5O1RtI5r0bVFNjhZ2PPfwJKpPopSP0VuL36OuoKOuaiNM0TUNSO7CxZsg/+lGz/wA2oPzbxGafOjkbaXcyt4zdjW2dauMvaarip0JxyH9lbes1VroNtVgm40DtlAUBQJsv4aBL9NqA6PDQLHHJLIscal5JCFRALkkmwAFFbOTyXzJjahHgT4qxzS465iyGeDsPh2NhKcjj7BU4vZuX97ZvoMVgVYqbXBsbEEecUCUBQFAUBQFAUBQIaIKAqAqjAzl7PUpwN0gSTykcJ/hqRuM6cWcE72UE+MbPoqiIG0sZ8NvPUqL4NVooNAl6ILmilvRBeigk0QbaA20CCgGBZWXoZWHov9FCswVGEmHuI6mP5ajcWwSNo3jaPHRX38NeY91f4+Gu/wCB/HcV/wA4YnaH01hfqpd+GpvpndJzTlIbMcF4Af8A8giD/qVUfBOlr/iGb6kZ9NhW2Y1tHXj1OV9/ZQgDxu3/AMtCtqqgvQAoFF/JRC7eigQigSiigtabp8uoZa4sUsMLsGbtMmaPHjAVSxvJKyKN2wX2mg7zUsnT9X7vsbRcPVofi+Xclo3+JmjgGZjzAyK0Ik4HZYp+NUU3IDcR4RsULmRicvxa3pkE50XIyMPQQcfs5sJcPI1W5PDlyQMsV4w9vtWAfgFyQdsCoeV5czHGR+DT8zYelTOwQYuPpcue2QBDG5TssN2ix2ZifcZgBdukMHm7L5T7TCinxo8vVosHg1LJ0aTHw8P4wyOyELFBLDKEiKK5i4Qx3NQWOdodK07Dn0/SX0jI0Xhxxp+TC0E+oyvwh5Z5JEDzx3PErRyMijYFWqOCoCgKAoCiCgS1AUCVBj6ynDlwSfXRkPjBDD6afVqMvLtZT1Ej1H6apVSQ2W/1SD5jUqNBTcVWi0KL0QXoujiokHGtF0cQoaUMKGgmgL0NF7Mp8IojNYcLsvUSPMajJ2L9648ANRqLtGn2LypqDZvytZExa7x8valAfAYIp4x6FFZWk+bHUmxO6OaBTY5+di45HWoZpj/dUiPjnSx7EzdfCvrNbZ4tbQBdsyTrkVB4lW/86hWtVQUDgR5aICQPBQAI66AuOigLi1Al/BQJRRQFAUBQFAUBQFAUBQFAUBQFEZmuJ9jDJ9SQeZgVqNRi5I9g+Ag+e4qrYpvtUjrFGV2FuKNT1gVGjyaqEvQRmeMGxYX6r0QrcDxm7WBHvDZ6aCJYIAwPbSEg3tcbamKdNErsCJmjt+aLW9NKHQx8AP2hkv1gC1A/jHXVQ64opG909dBSyf8AMP1E3HlF6Mkxv8yPCp9FZrUXqNPqLuizTkfLHzXCTf4PG1iEDqDYhlH95WfqtQfOhqDx6Byxp4Ps5GZkTsv9jEqj+9qxm/D5l08WxGP1nPoArSRr6AP8AX6ZJZG9PD/NolaVUFBDlzGKEsvvE2B6r1KRY0rlvWNRxBlxPjxxOWCGcvxMFPCSOFJNnECK7+n9Xn7JsZ5+3jxuVbPJWu7Bx4h8IMmzzxiun8D2/Zj+Rw+5rcncxjcmO/6jsPWFqfwfb9v+D+Rw+6M8pc0jb8Gp8Uyf06zf1Pb/ANWp7uH3Dcrc2KBfT28k8TeqQ1n+N7P+tPzcPvEbcvc0pv06X9l1b1Maz+D2f9av5OH3iI6VzKu/TMvxiJz6lrP4+f2rXbj94Y2BzGi3bTcwA9Jx5LefgqdeX2XwjZNZTa2HkKP0oXA/hqeTIgfOyIyVkQqw3hlIPpqauEOqMB+b5dn001OoGqnqU+WmnU4amT+YD5aaYUamOmP0006l/Elv7ht46aYcNRi6VIpphyZ8DNY3HhNXTFkG9VBQFBS1hC2nyWFytmHjUg1KsYWQLo3iv5iKq1QajKxhteBQejZ5qi6nqlFEVJJcLjYOilr+0SvTWfCpuLH+HBsBBbduFr1RFH+Hca8AHFf2dp3+ep4D50xGf7b37fWtsq1DoFx1U9lcj84k8VIqLscUnZK4/a/3UxFkABQBtAGwmqpaIp5WyRSelB6Nn0UEcJtkx+E284qVeLSttqNvoHuLzGfuT7zMMnZBh5UoH9tgSr/0qz9RU+c7OZuaOW8C/sw4M09vDLME/wClV4s8vh4TjezhJ4eJvSa0Rt6KvDpeP4V4j+0S300jK7VBQVdR+5HjqVY6LlrCyp9Kw58nObC0vG42UhljDydvJe7HbYeGvpfo8b123OOvN+xykvx5dSmp6DiFMZ9QhDlTIoeUMSo2libmvo/m4T6vHePK/RrxQq6q6niVgGVhuIO0GukrlUy43gpokXFPVU1Ui4h6qmriQYh6qdkw9cPwVLyakPGHU7NYkGIbWufFWbi+R8ECTcXvv8NZvHjfoefux+Y8fEw8CbKlgiaHhIZQiiRif0yVC2664+zhwk+I68Lfu8503lzWuZ5u00/DjspZe2dUROyS/Z3YK0RkY7L8Nz4rmvnz1dvOY9V5461OVh8AzZ2h40M7WjThixeJ34R7QEfGq3bZbz2r1T18M/u4uXblvik0DQdJ1bVIsR+WMeHGfI7CTJf7IcKpZmh4ATKyyb7bLbiTXDl+P6R0nb7oJeQNGg1GWCTAkzVfKXGcRK8EUAlZRH9rGHZbKSXLpc7OEW21y68L8R02tDM7qeXfg9SnxMKZo4UWTEnjyCwMUigo6K7HtWWzM3RbouKX1cZEnOvKtPdmxlJ3jZXCN1aqoKCHLXixZV60YeipSOaBLwKfrLt8q1WvootuowmwiOzI6mOyo0s1QttlBA2ROCQIXYDpAuDU0PaVhD2jId21LXPmoVFHkozqBAQxOw8AFvRTQTzYyvaWMMeglb7PHS4HwSQMjGFAqg+0ALbaQV+00070X0j6angXBbhFh7NhYDdaqCqirl7oz+sPTf6aFV1a0iN1MPXUq8WuRUbeydxOYV5K70MK/wB5oE81v1IJ1/n1n6ij83Od8R3qxY97jC0zHjt1cbySfz6vFnk8mY8GAvgjv5xetJPh0OAnBhQJ1Rp/CKRFiqCgqaj9yP1hUqxSk1PP4MHT41bIxw3aNiO7CB7yye+N1q6cOdzGeUm79UvLypmZMmKcQ4x42WTIRkKILGysZ9gdSoCkEWrv6rvjM/4Y5+HrnImsJqWG2BwF5NPCxHLjPawSKqjhPar7PHY7RX0vT7dmfZ4fb68uuuXD8Fdezn1SphnqqdlxMmEeqs3k1ImTC8FTsuJBg+Cp2MO+C8FOxhwwfBU7GJE01m6Kl5rIsScoJqOOIZZUQFgTxQrNtG4hX9m9+m1cfZ7XXhwRaJyD+AatHDp8E02AcfgLTPGmMjqxf7tRxlpOI3K7vLXlvus8R36T6tnX+TsXWHxS+FHGuOHD9iwV24ynEC142KlVIIvt6dlcuXO36uk4yKOZydlY+tQyYWmSZGiySwS5Ky5HC8PwoIjEMaTIvCAbdfXxCsaY0Pw+fBnhysPTsvi4mjyIxEG4o2J4Ha8knG0e4lrlhfwCmmMPnDUZINHCCRcVeF4ZVEWRjv2RDAIVkiIIvwj2X2bdlNMfL2mn/CqfD9ArEa5LV6rIvQI9mQjrFRXLw7Iwv1WK+ZiKT4aUH2Ejw1Wafh+/IPCDUWLoooO6ggPxoY8KoV6PaF/TREhM4iDcIMv1QRbz1QxJc4sA0VlO9uIbKmnkPNko1kiZ16xTQ5JJnQl0ZCNwbpoITln87Hb9y/0VNNWCx2E760E4qIr5f3Y8Dn0gfkoVTc2F+rbWarb3gHrqNvTO5PJEeNz/AAE/f8p6lwjwogPqJpRnfM5kibvn1zhN1hjxIh+zjIT6Wqxjk8+y9mGV/QC+cAVo+jqIhwoF+qLebZUQ69VBegq6ifsR4xWa1FOHlrV9ZlhXCAKLHxFeIC57ZwN+036LdVdfV6uXL4Z585Pl6XpndPpOBjNmcxaorY0EW4kY8EJYKpPEOFnOzfbb03r3z9fjx/8AavNfdbfEdPyjBy1puTHHpGdHPpWoy9kjRmIY4yrcQRDskZuHoFxtrrxsnx8OfKW/L0WHQp3A4V30vtkZ6NHH5VmYe03D5L1y5e+OvH1WrMfK3CQWlBHTdazf2F/Cl/AIIwzMEcLuAJF6n5rT8Uit+FIz7FKjqG2t/kY6njRWc+ypA6zs9dT8uL+O1bh5diIHHtI3i9vVWL73Selei0DEC7AQfC165cvfXSeqLkOHjwLsAJG6ud563OOGy3O1R5KzFVHkYsBexPTQX8JXZPbNyOigmaFwPs24eoEXFQYfMkOopy7rLGaMK2LOxVVbcImBG1ukUo+KNM/yq/7dVYi8lujIqgqDmWHDJOv1ZG9fFSOihPslcdRNGKTEP27eFRRYvA1VHRRNQmHIJJWcAdAK1PJiQpN2Vlcdpb3iNlDDI48wOOOSMp+da9/Jsp5USLlcd4+Ap4TY0QsYm4PtAoa+wA3q6GCTOH/B8zD8tTRLY9O/pqgoivk/dN4GU+giixSfaDUG3EeKFD1qPVWW47juqnMWocxR3+/5b1lPNhu/8ygy+/XJOT3v81sdvDnNEP8A00VPoqxjl8uYyRdUT6zovnYVarqKMEoCgq6h90PGKlaje5W5q1vSNPOPpkKwzSq7JqDYyZDey7Hs0ueNmO2yqLdO2u3q914zGPZw7Ox5S5P1TVNSOrc2QtNiAnLmydZaOHHMKqO0ZEDHi7NdqgIBtF2tsPbj7Z9WL6/o9A+J7oYF0yUalAEjnbJ0yPF4yDIB7RVI1N16Orord97M9d+7pH7zOU9KmMWoR5mKywLkXmht79vs+AMXEgBuVZR09VcOXPXTjwkdpo2s6Zq+nQajpk8eVg5C8UM0ZurAGx9Irm2umMNtNqdlwwxRdIqzknU0RQjco8lXavWFBQnhBHlrFq4Vo+I8IO09VS81w7sGRbdW+kuoa0BG1TsA29NXsKU/aA7LgeAVdKSPFIYS8YcHaTTUxowMqrcDorNJDPj4eMp+cu8eOrIrM5ryU/0vq9iP8lk/3TVKPiHTbfCJWYlWb3uK0ht7dFQKTsoOdyRw5uWv6QPnUUjTOyj9s3h+mjNMxjbIHhU0VfFqqFoAUUSoHQrxlD9Yb6iokxirg9uzD6pAomEkgkZrpPwj6tr0MPjVlWzydob7wLUCtVQXoEoIMi/ZyDwA+ZqKpGoNrD9rEhP6IrLcdZ3fzCHWc++6TRdZj/e0zIpVZXevKJu9PmuQbQ2r5YHiExX6Ksc+XyyWHFk469c6ehr1R0g3CjIoCgq6h90PGKlaiKHmVdNXGgk02PUSEeSEStM3C/avw8KIwWwt7Wz2vBYVNWxNqHMfN06Rw4sM8GA/EIsaZYuAcWzjRQiH2R7rEG3jq7UxLNNz7AuNkSZEOLkdky4TnhGVwE+0ynh9m+2zWueitf3J4ehcod2jTYE2Rmavp2p6rlsDkRZeN2jObF1HbsUm7S/SL1qcR7ryTEmi8t4OlmQF8dLFQkUQW/5gEIVCF+ta53mr1W1v/jJTe1x56x8kPTU45dx2+CrmKl+KXobb1GgYz3IIO+s8rizyuIJseHjY3dvdXqFc+P8Add+i8piudSlU+sHbXRk4awm5iFoGnVImJuVPTTBSy9QjBuGFj1UgjjzW4gwYBQLXB21RQbLm+NkmRuNrEFLbLX2bjV1Kx+Z9Vzzy9qokuqthzjg4bDbE3+2+lR8o4P8All8FYi1YvVQlAUGDm7NTn8KofWKkaZeV975B6qrNMgP+ITxGhq+KqloCgTaTsoHiKXeFJ8lDDeFuqgLUQGgbegQmghmvwv8AqH0EUqxSqDa07bhReAH11luN7lmXstSlb62DqKfv4M6/TUGXzxMZ+fNelJuZNUyzcbjfIatRjl8q8Y4s7EH/ADb+YE1atdHRgVQUVVz/ALryis1YzMqHAU4M8+VLjuwdD2a7bCRzdW4gd9Ra1tdk5ZGJh5WFlqMuMcHZoXYEAja3Fci9yb7Qei1b5Z9EiTR9ciwNVTIx8uTNy4RcyxEmM8RPaKY3VLbLe4RfrqSo9K0fWOWNO0aHU8pWOoaaWEMkkPZyFybiFkQMxQSPvO3proIsPvn5iLr8WuBhy9qEeAiQsIgT2kiktwkru31m8qO/wue8HVI0yMCUS4bb5hcDiH5gv0jprXGeFrRx+Z0BDI1r7jVsSVfg5pR/ek21F1v6Tr+nLG+VlzrwRfmL7Rv1WFef2cu3KcY6T+3jtU8nvHxXnJXGLQ3tfiHFbxWt6a6ZniOfYk3OOgyx8ccln6UYEEeT8lTVZGTzbi3Iju/h3D01U1Ql5pb81beWrpqjNzFktchherKWqJ13NjYss7An3hfZ5qbEJ/rTUYwEMgKr0kU8Cnq/NWTPpeckjqyyY8qkA23oRVvwn1eIYX+WXy1zjVWKqEOygS9BiakLakT9aNfQTUisnLt2g8QqlRRn7aPxn1UGhVQo20VKsaKpeVgiDeSbDz1FQyaxjx+zBGX/AEj7A+lvSKmmqz6xOx+6jt4eM+tqnZNIupvfanD4Y3YeglhTsanizUkNrhz9UgI/k/Nb0VZVSE3F12jcegg9RHRWkMJ9NEB3UEUm1W/Ub1UqxRqDb0rbhJ4Cw9NZbjU0timWx/5GSP3seQfTUVla9J2vM+pSfXz8hreOdjW+Lny+UmOL6jiDqZj/ACGpVroqrIoCgq6h90PGKzVjm9bdf8PGV3xn2ukWlfdWa0yfZB2eeojY0vV8uDs4sGMJLsVZQqlwW9liptsuK1Lg6LHmz1yUyMkvlZIW8cpkLoybjxJIeLZXSXE1V1IS5mbHNkwSTLZVVozwLG5NlN9uxRclevfWb5qR3ODzXHhYyYmMgyCh95V4Sz2uWa1hc9NdJyRdXmvKiUSTsiWUAJtIHg8Jp2VGnNeVmOqxyEhjbfZRt6AN9Z58siya38jmNsbETERieEcT2+tXL08cl5fWnO7f9FJeZm4gGuvhrteLKReYEZyzNa26sYuifXuzjaVpOGNQSztsAA276miD/WWAkYd8uLsy4j4uIEcZ3KSOmmwWsjXoIMeTJmfhijBZ22mwHTZbmmjnH5/xA+WuV/h2x7NEgcOZoyAeJCNl/Bvqd1xmY3OudqM8qY+L/hjIwizDdVWMDe6ne1+qnZEmp65Gg7IliZVcAmwG76a12JPLAwv8svlqRamqoQ0CVBjaoP8AHoeuM+hhSNMjM+8Hi+k1UQJ96h8NBpDdVQ9WSNDLJsVfOfFUaZWVlSZEnE5sq+4g3AVi1LUVRBQFAUFvFzCCEla3Qsh/hbrX1VqVdW28RG2xB3g9VbQ1qCNtx/Vb+E0qxRqDb0j/ACQ8DN66y3Ghi3E5P/Ll/u2qKx9RYtrWU+/iypW88pNbjlflewhfU8bwcZ/k0rVb9VkWoCgq59+y8orNWOX182fH/s2/vGrNaZdx01EPjBZt4sd4BteitvTdSmEqqV7JhsDoPaI6FLG+zrrfHkzi8M3Gx5ysUSoXsZHLdINz7x2L4vPW/BYmGr5LNaJWBN1DgAkL1gURPiwswDZUjyG9wrtfz9Fag3NLy4oZhJf3BsA2nzVy9k3J925ci5JqHacRYbW2+KuljnFcZIJsGDdBG/dTVUNV16PBx+OI8czC6Ib8Nr2JJHV1VzvMk1zOVrS50ks2QDE7xhWCO3C7jZcru2Vz1vMNbVFfMgkdEURcIk4AeBuG3tMjbCfJQLqHNGoZsknaTumOLlY47KOLoN7XIp5TFGLMZW7XgWcP7/EoYjo322UV0un8x4bYapMywSICOzsbWXqPSTTUNTV0z2eKIqgVHcq4DcQUHcegiqJMP/LqPHW4lTE1UJQJQZGrD/Gwn/lt6xUjTGzffHl9dVEC340/WoNEHZVRU1Ccs4hHux7x+kd/5KxyWqlZQUBQJQF6YCgv4s3HFwk+0llPhH5p8m6tyqmO0A1pDG3+Q+o0ooVFbejf5P8Abas1uNLGH2p/Uk/u2qKwskH8Sl/t3/jNbjlflo4P/ucH6r+qlarfqsiiC4qKgykMkTBd42jw2pVjBz9PXL4DxlGjBVbKGBBN9u0W39VYaUzoLW2TrfqZWHpHFTA1tBktcTxHwfa//wAdMCro+TGPs5kJ6lLj+JFFMEvwGbcMSjkbm41UjzkU8ixFFqcABRoynSpliLbeuzXNanKpYtJLklh2yBl6VikQt5gTWryTF6TLmhghXBilWQvxOvBdXFiOFjtt11yu7rX0QZ2q8woOEYbQmxDkRswJ6CjW6KXlUxT/ABTV8YcbRlXkBBZlN/CQKyYy5Xkv2k5YlvzzvPR00VXLbyNovvNWBgd+Ky/u221cDVMjcRG9dp/3UCiQklmFx0jdQKJL+zsAv4bUxF3TMqb4iNBdY2DDYAAfZJ21fKx0+J/l18vrrUZqWqgoCgydW/zUJ/Rb1io1GLm+8PL66qK42MvjFQaCm1rnqrVGYxJdmO8kk1yqEoCgKAoEoFoJMYkS2H5wK+i49IqxYuq3EL9B210iGtvHl9RoKXRUVuaKL4f7bVmtxqYikzkD+rl9ETGosYGcCup5AO9chwfJIRW45X5X8E//ALGD9V/UKVW+DeqgvQN27jUAd9xsoGNBjO13iF+kqSvqphppxMM/8Nh4n/KKYbSHCxD/AFg/aH5KYu0nwGL9eQfumphpDp8HRK/lUflphpPw6Pom86f76YdjTpo6JlPjVqYdiHSz0SRnzj6KYdjfwt+gxee30UxewGnZKG6cIPWrAfkph2OONqY/OkPik/8AmphsNkxtSa3GJXA3Xdm+k1MO0MOLlg3aFmPQXQP/ABBqYajbHbiu2NHxDpOPF/QpimSQI9i8EYtutDGn8KrTA34bB/OxInJ38QcDzKy0EyQwOw7HDjWQjhVkM1xcWuA0jLuPSKDQjjEaBN9htPh6a0ycfRRCVAVRk6v/AJiHwBqjTFzT7Q8taRXHvL4xWaL3QPJWqM0+8fHXOoKgVVLGw30gd2R6x56vUKMeQ7rHy1eq4d8Fk9CX8tTqYa2NkKCWjIA2k060wkH3yeOkSLcP3a+IequkAx2jy+qlFMVFb2hj/BfttWa3GzpcfHmMOqDJP7uPIfoqLHPa2nZ65qCbuDMmG3wTMK3HPl8rWD/7hB4n9VKN3Zbw0QtzegTw0CUATc0BQHRQFAUBQXtElwotYwps6KOfCjmRsmGbjEbxg+0r9mGexH1QTQehz4fchnZOozyajNiqFRsHHxYXgQAxMzot47SOsvCvE4W46Omgy5OW+7WaRosTXOyQ4AlxsqfIUF87gQmGaJoF7FeIuL8Zvagsryt3YYnM+jY8eutq2DmZ7x5LO8UePFjRSAA5DDs3AlW5BUigly+7Ll/UtSTG5Z1Lt+PTGzY1Dwz9tlxkceNEFcSJsJPtrstsLUFPJ7stNwZeYsTM1cfG6PqGJpeGRwxRyyZYB7WQMJGCIW22PXtoHaz3O6npONlZmTrOIuDhxPLPO0c6uAmSMYcMQV3YO5urDYV20GRond3zLrWmRalprxSY07ZgTikdD/gVV5OL2bDiDDgudvgoLmo90nPeBBkTyLBLDidp8Q0WRxcDQvHG6WYKSQ0y7tlDGXzByPzVy/F2msRRYt3kjRGnhaSQxSdk5jj4uN1V9lwKGNrU+57nPT8KbJlkximMk0udZmVIo4DGL8fB7fF2o2AbNt6GOU1XlnmLSIoptV03IwopjwxPMnCGbhD8N/rcLA232oM00CVAUGVqv38fgDU+rU+GHme+PGa0iBfeXxipRdPu1aM+T3zWOSErI7Dup0WPVebAksSzQ48Ekro4utzZFv8AvV5f3PZeHDx81x9/LOL21eTtIOw6ZAf2fyGvjz3+3714u9+5snImgOPa0mLyK35a1P2fdPqs9l+6o/d1yyd+mKPFcVr+Z7Y1+bl93Gd6PKnL+icrNlYmN2WTNPFBGeI7ASXYgbOhbV7P0v2fZ7OVnL4kdvT7OXLl5rySH71a+pHrXI9kYt1CtxDW3jy+o1aK3RWVdBoS/wCAB/Sb11mtx0XLMPa6nMv1cHUH/dwZm+iosc/ztCYOcddhN7x6llLt8E7VufDny+TtFx1yNYxonYqpEl2XeLIT0g9VY9nLJr1/ofrz3e2cLcl3z/s3MnHkxp2hksWWxDDcyncwq8Oc5TXP9r9bl6fZeHL5n/moq085RagLX3UBbZu20C2IFAhoDhNADw0BY2vQHUN1AE0CUBQPillhftIZGik3dpGxRrfrLY0DZGaRzJIxkka5Z2PExvvuTtNAAkCwJsRYi53DooNTTeauZNLwMnTtO1KfEwc0MMrHiICyB14WvsvtUW2GgI+auaI5UmTWM0SxKY43+IlJVGtdRdjsPCNlBX1HW9Y1MwnUs6bMOPxmAzuZCnav2j8Jb6z+0fDQamb3g8652DPg5msTz4uUrJPG/B7auyu12ChtrRr09FAzmPnvmrmTFx8bWc45UOK3HEvAiXfhCcTcAXibhFrmgwDQJUBQZWrffJ4jT6tfRg5Xv+f11WYhUe2vjFKq8d1WjOY3YmudQlQep9xkMccurZ7sFP2OOhJtv4nb6K+Z/krc4x5f2r8R7XiMGBO+vnet46ui1d5WS3qjx/5iM5fhtEwAfaZ5sh18CqEX0sa+h+jx+b/o9n6k+a8YhG29e97VmM+wK1ENk3+f1GggG6orotFH/wCuTwlvXWL8tx2HIMAl1jPv+Zo2sSfu6bPaiuf72YBB3mc1xDYE1XLt4jMzfTW+Pw58vlU5cmEWvYTkXBMi26+KJgN9c/fN4V7/APFcpP2OG+Pn/it/VZ45sy8Z4ljRY+LrIJY+bitU9PDrxX/K+/j7Pfbw/wDWZP8A4U66vnCgeBVDrURq6bo+HlaBrOoPkSLmaaMd4cZUHAyTTLEzPIT0cWxQPLRWSVoEKm970Bw0AR/8KDX1rlyTTMXFy1zMfPxMp5YVyMUuUE2Pw9ql3VOLh7RfaW6nroMcrUCMKBKC3pmk6pqmT8LpuLJl5HCX7KIXPCu9j1DbQVpI5I5GjkUpIjFXRhZlZTYgg7iDQNoCgKAtQFqBCKBKAoCoMjVb9uv6p9dIrCyff8/rNVIjT308dFXT7oqjNrmhbXqyK77lFmw9AxVMTMc/IdxbpCsIxf8AcNeL3Ttyv9I8vtm8r/SPV8DOJiUCNr9VfI9nDy8Mq+ua46HH+3jrl1U4alJewdwfLVyjxnvl1B8vmmGFmLDEw0UX65WZ/Vavt/47jZ69+9e/9aZxcMBa/i+ive9CZPdFWIjk3+Q+qlIiqK6XSBbTYfDc+k1itx33dbi9rncxydGPy5q7n9rFZP59FYPfxiHG73OaUOzjyzKP/VjV/wCdW+PwxyctpuPLl6hgY8PD2s0yInGeFbv7Iu3QNtTlcmsXlOM2/EdPqGm5+m5Hw2bF2Utgy7Qysu7iRhsZfFU48pZsThznKbPhWuK00Wg9c7vO47TeaeVYtdzdffAad3WOCKFZAqxsV9tmI9rZuFS1ZG8/y16Ne0XOCX6BJAg9Ugpq9TV+XSWKHIhxeb8QRZKqs6FSA6owdQ1pTuYA07HVTf5ZddYf4fXdOl6tso9RNOx1eW848sZ/K3MuRoOdLFNkY6xu0mOSyHtV4hbiAO6mpY6qHuE71ZMWHJXSY3SZFkCjLhDgMLgFWtt2006oZu5HvRi38vzOAdvBNA9/M4NXTrWhzhyb3jay+I/+icrTxhRdhHDiXmhEYtwrHEZWWMXuTw+8Tc3NNOrksvkPnjFRnn5d1ONEF2ZsWQAAdOzipqZWDGskrKkUbySMbKiKzNe1/dUFtw6qaHtiyj30aM9Txyr60FBqcsZWl4OrR5GoTvBHFZ4pEjjyE7VGVlE2PMY1ljNvdvvseiqitzBn4mo67qOfjjsoMzJlyI45JUZ1WRywDHiO3bRWd7B3EE+Ag+qoAC4ttv0bKDsMubk2XLxseHCRYYtNcTT/AHKtm/BhlfjVi0lpwRZgPaPSKqNccvcmvo+D2MePNIuYmPn5IyVjcojxI7BnyE4BJdrHsWG33l3iKqa/yroWLBnyYGKuS8e2UJmBPgU+HWRGZGeTjZ5CylC72twhrm9BwRU0DaAqAoMfUz/iB4FPrpGmFObuarMMj+8Xx/RRV1vdqozbVzgktZST0Ctq+jOQtKjxuWdJgkjViuJHIeIA+1JeQ7/1q/N/s87y9l/1fN9t/uruYMPG4BeFN31R+St8eMxwSHBwjvgTzCt/j4/Y0w6XgHb2C38F6l9XE2vmfvJlTJ541lox9nHkjHTp2QKqesGvsfrcJx9ckfU9HHOEcw4t6fUa710PT3KsEcm/z0qxHUHUaattOxx+iD56xW49S7mMfjwuf8gi4h5Xz0B6jIn5FqKw/mbxRD3x6yQLLNFiSjxnGRSfOtb4ufJwfK8qx69osre6mbjFr9XaqDTnNlZ5TZY9J50RF0TGjYANj5jQwdfCY2Mq+IMqny1x9fjlXyv8ZsvKfSOLFd31jqDS0zmTmHS4zFpmp5WDGW4ymPK8a8XXZTQbEPef3jRn2eZdQt+lOzeuhrQj73e8dYzfW5ZLDaZUjk/iU0w7UJ3094sZB+PgcjcXw8Y7v2KmL2rldd1rP1zVptW1F1bNnCK5hjSFAI14V4UQBRspha9GxPmK5rghiil03CyBEixhy08TEKLXPA4FzTqvZpY/zKa5Yceiw26THmZSn0k06nZoD5l50VS+jT36ezzb7/142p1O5ZfmbglxJoDpedG8ilQ3xOO42i1jeC9uvppi9nmvdfzji8p83x63nI0kQilRjAod1aRSLqr2G/YfBTGZXtKfMfydKPtZ8pT0iTT1cfyZhUxrYsL33d2+TsklxeI9M+mSKPQ8lMp2hp7yu52diMpdCcnpfClX1wPTKuxwvfBrPdZn8sQnlmDSl1b4uIl9PRll7IBuO4MMQ4d3TSJcVu5bVe7LB0nU4+bINPfPmnQwPqCMbxLHYBGEUoADcV9oq1Jj0MT9w2W1hp+gEG21cuKL+IRVPLXhIvLXcXlL/wC16cCdt4dUx7+IWyVp5PBW7r+5XLt2enst93Y50bgeLhyJKbTq8t75+ReTOV0wZNBmlWbKkdXw5nV2EaAfaCxLcJJtc76sZseWkmqySgKisXUjfJbwAemrFrDk33ozCRD7VaKtvu/26qtRWx8Zn9q2ysyKe0LNEwA2MSL+AbKo67D72OeMVI41mxmSJVRAYF91RYDYV6K8d/Q9Vu5/9uF9HGtmDvz52Qe1HhN44WHqetfwuH9Wf4vFci7/ADmlfvNPwZPEJk/ntU/hcfvWf4nH71dh+YTUBbt9Cie2/sshl/iRqzf0v6pf1J93l+XlSZuZNlSAiTIllyHG+xkYtb+VXskySPZJkxRmHR4/UatIcuxa1ERSe95KlIjb3aiusxF4cOFepF9VYbezdyGGDyF3m5pG1dHkgB8eNkOfUKi1j/Ntgdh3m4+Ra3xemwPfrKSSR/za1xY5PFoJHiRJF2PEwdT4Ua49VarLtNV1vP1eZJsphZAeyiQWReI8TWHWTvrPHjI5+r08fXM4qQrToUUCqVJt0ncKCVY2YXWx/aX6TVR2WLqXLid2uo6MqTQ63kTY+RIxWJ0neOU8IWQPxKkcX5pG8k7ehg41on+qdngNRUZAvt2ePZQHDsvegci3ZV4uG5AuDa1zbpqjt+87SsHDnwZsLT/wrHmOREmFJEIpysDKFmYrLMkscgb2JFtex30Rw7LUU2xoCx6qDp+R+Woteyc4ZWUMTEwIFnmk44o2PaSpCih52SMe1J0nwDfVTGJq2JLh6ll4T8XHizSQnjXgb7NivtJc8J2br0Ip7aiigvaZo2paiJ5cOESx4gVsh2kiiVQ5IW5lZAS1jYDbQTZelajgxo+ZgywrNH20ZYbDGAt22E2txre/WOuqjMmh4JGV4zG43owKkX2jYdu6optgNwoG0BUAd1FYWot9tI3UPVerCsZ6EEAvL4hT6i9GAZEDDiUnaOsVaRfCYhWyXiPQpHEvnG2o0hGDPHAoeMjZtI2jb4RRMQNAFJ9riBN927wVUKIhQwvYihhRAwNzbhIBW2/w3qGHrGSxsLgC1/Cf/hRVfNitGXuOkEXF9xoiFfd8VWIhc+0alIaRcW66K7BF4Y1XqAHorDo9+7mcHs+4vn7NI/zMGfGD4IcE/wBOolZPziYBXXuXM+2yXEngv/ZSB/8Aq1ril+HzsB7Ei+P0itsOjx24seJutQfRWYtSgVUAoPae6DvO5D5b5WfS9Xxljz3neSTJbFGQJFa3DxMGU+yBa1SxqV3Y72O5zI+8fS9v9bgSIf4HqZWtiZObu5DLTaNBdPDG8Z9MFMqbDQ3cPmGzY2hkHpXI4D/KWOnk8PBu9SDlzH55mi5figg0pYoDw4sizxBjcuQ63BPg6KqV7Rg91/cnk4WMYoO1kMUZaSHUouNyVF2KmfYSd+yp5XImbuN7rpj9jHqqX3GLIWQegvTTrEc/y98hy2CZWtREAAF4jKLDcPuTTTqydT+XblCLHlki1/OhZEZlEmGDcgXF7olNOryTu75Kk5w5g/CRnx4ASJ5pMqVBIoVAdgW6j2mt07KtrOPR5PluzL2h5n0uXqDo6fwSGp2Xqn0nuF570nKefS9W0WQyxmKVJDLLG6XDBXjlWVGsygi42EVeydWXqPy7d5mRlTZUnweXPO7SyzLlMC7ueJmPHH0k1ex1cdzn3Wc58oYMWfrWHHDhzSiBJkyI5vtGBYDhUA7lNNMVOVu7rnPmjEnzND01szEx3EUsweNPtCvFwgOyk2BF7VNMdLgd3HfBpGBqOJh6Fkx/iKxJPLH2TMEiZjwgcZBDce2rp1XZeXedo48LGfkLNTTsZYY8jEjZ2SZI5UmluwRiGyHiXtGJbYLbrU061U7zdO5n5n15daTk3P0aaSFY8yPsppFkeP2VcWiXh9iynxUhZXnmdpufgyCLNxpcZzuSZGjJ8QcA0RUoCoA7jVVz+oH2pb0hWS/TQLjD7Q+Kk+RdT7xP9ug1aRZooE8sfuOV8RtUTSPqE597hf8AWUGrhqI5x/qYz5CPUaYaY2oMN0UY/e/LQ038QyCdioviUfTeiaa88s1u0bi4fdGwAeagH+5bwClDV92kED++aUh0K8c0a9bKPTUqx17Vh0fTnd1gHE+WjWJSLHM0/V8jzxSRj0R1ErL+cLAaTlzl3OA2Y+ZNCT/bRBv+lWoj5XUWkbw2rbNbemHiwovAtvNsrMKtWqoW1AtiaBygg3oOgwNF0zJ5W1HVZM6SDKwGRPhWx+KKV5mtFGkwkvxsqsxHBYAVUc6yA9A81RQPZFhs8FAlhe42HwbKCaKeSMXEkiAbbq7C3mNB0GtYnNmhrAMybIxhNcRlMkuAyBS6PwO3BIodSyNYi9VJaoJzfzXHG0cetZyxuCroMiSxB2EEX3Goqtout6romYM3SMl8LLVSizwsUYKdhFwemi66aLvk7zEAB1yWW27tkjl/jU1MNaOJ31d4PGAcnFnJ6HwsdmPmS9XInepv++/Oittg02Uf/iovpThqXjFnOsTnTvO1rm3TocDPxMXGjhmWftMYShmZFZVBDuy29s7hTFt1e7ve93U+StMn07Gwo8yHImM7GR5Y2UlVUhTG6/UG9aWErsIPmWzS449HcX+rnTj+MSUw7NCD5kEKnj0vMU/o5obzcWO1Oqd00XzPYEb/AGmmagQN4+IxmB88CVOrXZ593td6WPzx8DFjYUuPHiPJK02Q0TSsZAoCDslUBV4ekk1ZEtednfVZJUCMbKTRXO57e9frH0VYcmW26hEmILljSC2n3i/7dFWkWKKYwoiJxRETCqI2FQIBQSAWqhX+6fxVKGr7tIIWHtE0RY01OLPgH6YPm21mtcXUSHfWXR9h6dpDYfy+Np6j225bna36U+K8h9L1E+rM+aLTWzO6meZRc4GZjZBPUCxiP97ViPjJhaQeEeqtxmtbR2vjFfquw85v9NCr1ELQej8jdyHMvNugjWsXMw8TFkdkhjyGkLvwGxayW4RfZtqWrI2JPlq5/X7uXTZh+jLKv8QNNOpkvcP3rJph01cPHfD7f4opHlRgmXs+zBuy32L0Vdh1Y83cV3lxC50WRz/y54X+gU2HWuL17RNU0PVZNL1TGfEzY1VnhltcB9qnYTQxYxuT+bZsWHLXQ9QONkKHhnXGcoyMLhgRvBHTU0yiTlbX4x9ppuUo6RJjzAeX2KqZXR8/cwZnMMWGGwMuD4d5Zft1JWMSpGvYQcEMf2SdldS9221TK4mSJorh1KW33BHrAqCLij2G4ANrEkAG+7aaB6qp91l8jKfUaGus7utQxtP1jK+JyfgFysR4UzQ7QSRt2iP9nOsc3ZlghBuu0XXpqjI5qycHN5m1bM06Ps9PyMuaXFThKARs5K+zYWvvojJKiopoFzvoOg5b0/l2XTtXy9acqcRIBhqHkTiklZwRaJJGPujosOmg3JeU9Ew8LTtR1KXMwtPlhX49OKN51kkmiRHjPAFZDHI8mziFltxXvaozO8jlvl7lzmI6ToepS6rFFEj5ORII+ESSDiCIY9jWQgnx1FcqaBtAVAyY2ibxGixzmewLt4WJqpWc26ixNiD2CesmkFlfvE8vqq0ieimsaIic0REaoY1QIDQPFUK/3T+T11KGg+zQRdFRF3RUvqCH6qsfRapWuPy6aCBsnJhx0F2mdY1Hhdgo9dYdH31+FQfgv4T/AMD4b4TwcHZ9n6qJrnu93SjqndlzLhgXY4MsyjwwDth6Y6EfBEv5prpGav6M22ZPCGHlFvoojSogoOp5Z7y+duWsH4DR9Q7LCLl/hpI0lQM3vWDDZfpphro8f5ge8SM/aHAmB38WIq+lSKnWL2akHzGc2ol5tM06VhsuBNF/C1OsO9WoPmc1yNryaFjH+zyshfQeKnVezzHnfmaTmrmXJ1ySI4zTpFGIWkacr2ScN+0axN6SJa9g0P5mNOwdJwcDI0jMDYePFAZIJYCrdkgS4Vxsvap1Xs2Yfmd5ace3ianH13TGe3mIp1O0Wz8yHJJQCU5w8D4aPb92SnWnaHHv87rsiNxITxEbBNpzEeI2Y0yr2jxbus5j5a0fnh9V1+JDp7RzCIyRduqSOPZPZjwXGzdVsTXtI7xe5HLHFL+DEnolwJkP9y9TK1sSxal3E5u04ugOfCGi3/rQLTKmwn4J3DZLf5HRAW39nnxx+gvHTyvh57308t92mlcu4eVyvDjxZs2WiO2PmLkjsyjlhwLLJ0qNtqsZuJO6Dum5M5q5VfVdVmzWzzlSQiPEkVVREVbXSzG54r3qWkjsJfl05Cf3cnV4j0FouP8A6Jp2XqpzfLlyedia7mxWFrS4q+Mb0Trp2OqnL8tWiOAuLzTZibDtMdRtPRYOtOx1eZd5fdzPyTm4cL5sWfDmq7wTxAr923CwKkt0nrrUrNmOLIogoIcg2TwXF/FepVjmcw7uu3rrSVTbdUVYxlPZirETx37RfL6qVYnqKa1VKieiImqhl6gFFA8VQkn3TDxeupQ3/h0KjG6ojV5fS88r9Sgec/7qzW+L0Huw00al3jcu4hXiRs6F5F/QibtG9CVlt9y9N6MoM7EizcLIw5fusmJ4ZP1ZFKn10H506jiPjZE+M4s+PK0bDwoxU+qtxLC6U3Dlsv109R/31Ua9EFjQSADdcDxkD10Dgvl8W31UR69yzzRybF3drp+bNFGIoHjztMYMJZpj2hLLHwFZWlLxlJOMGPh6LbQ8eEbWHFvttoo4R10DbeWgkQDiUcXCCQCx3AX31Udl3gcv6bpixthYr4YjzsvACu7v8RFjLE0eUOP6/am/D7O61BxbLsvUU21vHQaWgcvZeuZk2Jisizw4s+WFe/tjHTjMa2/OfcvhoOjn7tNXxMRsmeeDiWSGHgVJn9uaOGQBnSNkTh+IVSWI2g1UqjrHd/zJgTGPJhhEgyVxFRXBu8kxgjYbACrsLq3VtqDmXiaKR42FnRijDwqbGilWWVCCjslulSV9VBskc5adHjTyfiONFlFRiOTMglLi69n9YkG4tvoav4XN/PSexjaxqZe7BUjkmZrp7wAXb7N9vVVTaRe9LvIiPscy6jY7g07tu/WvUa1ja5zDruvZa5mtZ02fkovZpLO5Yqm/hUbgL9VEZxoG0FbPa0J8R9RH01Fjm8ojj8laRVf3TUVdiWygVUSKPtV8RosSmoqN91VlWlkIqwRdoaILmoHKaKeKoJPuj4x66lCN914SKFR1Bt6AloJX+s1h5B/vrNb4vaPlo0ps3vNTLtdNNxJ5zfrcCFf7ystPrejIoPg/ve0n8N7yeZcMLwJ8bLNGvUk57ZfQ9ahXHYbcGXCes8PnFaqNyjJy0HuPdFzr3TaVyguBzFDixaqJpDPLk4xmMgZiUIcK5sFNrVLGuNduOafl9zDYto7H9KF0PpiFTKupxpvcBli4g0VgdvF2wQ+krTKbEX/b3uJy7iIYI4v6nUEv5LS08nh8+d5umaJpXP2o6Zol00yBYBErSCYAugLkMGYHaeurGa9ywPlw5DyNMxJkztQd5IY3aZZEdWLICWA4CLG+6prWRFkfLHyuwPZavmxfrwRv6eAU7HWK2ofLfDlLFxc2TzGFBHCMqDjCINyJ7Y4VHUKdk6xiaj8s2ZBjS5EPMGG8cKF2EkUi7hf82Q07HV5XydyXrvN2snSdGWI5SI0sjTOUjVF3m9mO+wFW1Md7h9wve9peWuVgRQx5CD2Z8fMjU7w1vbQdKinY6p5u7jvyjh7OfTI8sLIs6SSNg5EiSIEAZHYB1Nol3Hop2OqKXlzvyiWEZGiSZq4y2gSWCGcIROchGFnHtRysSnUNm6rsOteea9ypzPoqibWtLysFZpCqy5EfArSEFiOK527DTUxVwNA1rUIJJsLT8jJgQ8DzwwyyIGIvwlkVhex3U1crsoOZeYMHmDT9XyNDDrp0UMUET48kci9lFHCZRMscbl7RnhL34b0TKrLzVAI8rC7HO0jDylLjJwWHxMUzZb5Mli7R8SPxKhHED7CnbuoZUmu896Vqek5uCuCcObJbIlXMUxtMDJMsiwObgGOULeXhAPHY7RsqjgyB0G9QNNAlBR1Nvs7eIec3/m1F+jnsg+2TWkquRdlHWRUI0VFhVCr96viNFiU1FRst6qIJIAaIiMNqoAlQKBVDhQJJsj8o9dShp9wUKbUHRaUnBgJ+ldvOaxXSPpH5TNJ+z5h1hl3mDDibxBpJB6VqFfQ1EFB8ifNJpBxO8xc23s6ngwTX/Si4oT6IxWoV4sboQ3SjA+Y1qo6BfaAI6emjJ9UFAWHVUQ/iQLbgFz4qoi7Nd9reLZUXQAR/voJ0y8yMgxZEkdt3CxHqoa0MTmnmXGI7HV8yIjcVnkH01TWoe8vn2JQIeY89SOqd/wAtElpzd7veWYJMeTmDJlhlRo5Fk4XurCxHtA9BqY1rL5R5u1nlPU/xPRpEjyjGYW7VRIrI1rgq3iphru4vmR5/UDtMfT5usmEr/CwqZDtWrifMtzSD9tpGC/hR50/nVesTuuf+UepRvwyaDGwtt4MmQH+VxVOqzk4/vR74X5703Bwfw18D4SczuzzCVW9goABwrb3t9XDWt3Wd9+DyXy1+C5WnT5J+IknE+PIijhkVRZldTtHD11LFld3B8z3KUjASYmpR+Ds8dx/ElTqdmgnzC93U44pRkKTvEuJGx8Puymr1OxP+8/czl3GR8Pt39vpzn+FZKmVezxnvk13kjVtZw5OVIY1RYm+NnghfHid2e6hUcKTwrvPDWoza8+ohCKDK1NryW8/kGz6aRpgym7GjJsS8UyjquaK0AKqBR9qviNRqNXQdFydc1vB0fFeOPJ1CePGheZuCMNIwUFm27NvVRXezdw2sxcxZ+kPrWnx4+kYoy9Z1SUzQ42KGdkWNzJGrMzlCVsLEdNTTGrp3ccun6Rzvi68sU+s6YNKTQ8yCaQ45OozMgm9nh4lI4R7Q2bdlNTGdh/LxrEmsviZer4kWFBrUOg5GQgkLmeSBMhjGjBQQFk4RxEXar2OrH1/uuXH5ozOU9ClTVM5dVGnYWWHI4jYcSSXCqpjNxJ1EHqrz/lv5ev06vrT9Pj/Avuz+78nXd/p8Z8NOX5ceaPxjSMHD1bTNRx9Vy8jTmz8WV3ix8vEikmlhmugYMEge1htt0V6Oz5GOZ7we7DUuS8XSMzI1DD1LD1kZBxZ8JmdQ2K6pIp4lXcXG0XG+rLpY4yUfZ+UeulDD7ooU21QdRCnZ48afVUD0VzbfYPy46P8Ah/ddhTMLPqU0+Y3XYv2S/wAmIUK9PogoOT597seUueceGPXIHM+MGGLmQOY5ow9uIA7VYG25gao8V1b5P8lslzpfMqfDOdiZWMeNQejijezeYVdGdm/K73g4rFMDO07OgWwjkeSWCRgBvZDG6jyMaSljKm+XrvciNl0vGn8MeZF/P4KvZOqjP3H97kHv8uSP/ZZGLJ6padjqzpu6/vNh+85V1L9iISfwM1OydVGbkrnmDbPy1qsQ6S2FkfQhp2OrPm03VYPv9Py4f7THmX+JRTTrVVnCbHBT9YFfXV06034jH/rF/eFEw4SxncwPiNNMLcUBegL0BQKCw3XFUJc9VAh8VQFAA2IIO2glE7gWFqupiIi5JveopLWoEoA7qDBypONnbo2289I1WU++jJ2Kt5WPUAKQXAKqwo+9HiNRV/SNR/DdUxdQ+FgzfhZUm+Ey07XHl4DfglS68SHpF6K9Bn+YPnebWzqUmJpjYjYa6dJohxS2nvjxsWRWiZy/ssdnt7N27ZUw1Qz+/HnbNXXhOMUvrzYZldYnU466e/aY6YwVwqqDv4g16uJq7rnzFc9atDAhxNMw5oNQg1VcnEx3SRsnHUIrScUjq/EFHFxLfovawpia5nUu9LmTL5nfmWCLE07U2zV1FThw9nGuQoAJCMzg8ZF34rliSTvrn+Gd+31zHt//AEOf8f8ABk6du39dzPv8f7Ohn+YznqTWdK1OLE0vEGkzT5UeDjY7xY02VkwyQSZM6LJxPLwTNt4ht6N9derxa5TmjvA1rmXRND0fPhx48bQPivg3gV1kf4yRZJO1LO6mxQcPCB5aSFrmJfu/2h66VDG3ClU7Gj7TIjT6zC/nrNWPQOUeUdZ5u1/H0TSI+Kec3lma/ZwxD35ZCNyr6TsG2sNvuLl3RcbQ9B0/RsY8UGn48eMjkWLdmoUsR1sdtGWjQFAUBQFAUBQFAXNAbaBkkUUq8MqLIvUwDD01RQn5b5dyL9vpWHLffx48TX861F1Rm7veQZxaXlvS28PwcF/OEqoyp+5fuqnJMnLOECfqKY/4CtBSl7ge6OQW/wBPqh648jKT1S0XWbkfLV3WS+5jZkH9nmTfzy9NRRm+Vru8f7vO1aE9FsiJh/LhamjNyPlQ5cb/AC3MOoRfrpjyepEppkUZPlMTb2PNkg6hJhI38MqVdMjNyPlS5jX/AC3MmJJ1driyp/DI9OxkUZflb7wluYtV0mTqDHJQ/wB29OyYzsn5bO9WEns49Oyf1Mpl/jiWmmM+XuB74I720OKUD+rzcY/xMlXsdWfkdzvexj/ecr5T2/qnx5d36shpp1Z03d13jw37TlPVgBvK4ruP5HFTTqzsrl3mfF/zOhalBbf2mHkDd+xTUxnTQaibwQ4OU+XJ7EOOMebjdzsCqCtyb00xiT6bqcY7FsPIEo9koYZA1x4LXq6uLOncgc9aoR+HcvallX3GPFmI8/Dappjej7ku9mCPjk5Vz/b22RFc2PWFYmmmK2R3ad4mMQs/LGqRk7gcSY38VlNXVxj6joetaYyvqWnZWCGuqtkwyRAkdALqNtNMVAyncQaIDQMNAw9NVlGaBLVQtqBJB7AHhFSrEbbx4BUqtflDRNS1vX8XTdNgbJzchuCCFd5Y7NvUBvJ6BUqyPunur7s9M5E0EYsfDPq2UFfU84D33G5EvtEabl699YW12tEFAUBQFAUBQFAUBQFAUBQFAUBQFAUBQFAUBQFAUBQFAbfDQG3w1QbaA2+GgKgNtUVtQ/D/AIZvxHsfhvzviOHs/Lx7Kg885i/8duBvxj/Td9vFw/C9r4fufbqr5eVY/wD4j3zfiu1+8PY8Xxe6/wDwex/N/Wq+Rg53/ift7P8AHd//AAO09HaU8jndS/8AHGw+B/1Tf87i+Et5OKr5Tw5vO/7VWf4L8e3/AGfa/B2t4bVfKeFAf6Ivs/FLeH4al08In/0rc8Px9r7L9hup5PCTA/0V8Wn4p+J/A7eP4b4fteKx4bcfs2vvqeSY7HRf/GvZ+Lf6n7S+3/Ldn/8AR9qp5Xw9/wC5L/x+/Epv+39vx3sD2/xPxHxXY8Qvbt/Z37+D1VKr2WogoCg//9k=;fontFamily=Times New Roman;fontStyle=0" vertex="1" parent="1">
          <mxGeometry x="420" y="270" width="81" height="60" as="geometry" />
        </mxCell>
        <mxCell id="0eAvDL_jHnbjMay1iFv8-10" value="" style="endArrow=classic;html=1;fontFamily=Times New Roman;" edge="1" parent="1" source="0eAvDL_jHnbjMay1iFv8-7">
          <mxGeometry width="50" height="50" relative="1" as="geometry">
            <mxPoint x="150" y="160" as="sourcePoint" />
            <mxPoint x="200" y="110" as="targetPoint" />
          </mxGeometry>
        </mxCell>
        <mxCell id="0eAvDL_jHnbjMay1iFv8-11" value="" style="endArrow=classic;html=1;fontFamily=Times New Roman;exitX=0.985;exitY=0.558;exitDx=0;exitDy=0;exitPerimeter=0;entryX=0.5;entryY=0;entryDx=0;entryDy=0;" edge="1" parent="1" source="0eAvDL_jHnbjMay1iFv8-3" target="0eAvDL_jHnbjMay1iFv8-9">
          <mxGeometry width="50" height="50" relative="1" as="geometry">
            <mxPoint x="460" y="110" as="sourcePoint" />
            <mxPoint x="470" y="270" as="targetPoint" />
            <Array as="points">
              <mxPoint x="500" y="120" />
              <mxPoint x="470" y="250" />
            </Array>
          </mxGeometry>
        </mxCell>
        <mxCell id="0eAvDL_jHnbjMay1iFv8-12" value="" style="endArrow=classic;html=1;fontFamily=Times New Roman;exitX=1;exitY=0.5;exitDx=0;exitDy=0;entryX=0;entryY=0.385;entryDx=0;entryDy=0;entryPerimeter=0;" edge="1" parent="1" source="0eAvDL_jHnbjMay1iFv8-6" target="0eAvDL_jHnbjMay1iFv8-3">
          <mxGeometry width="50" height="50" relative="1" as="geometry">
            <mxPoint x="316" y="152.0512820512821" as="sourcePoint" />
            <mxPoint x="410" y="140" as="targetPoint" />
          </mxGeometry>
        </mxCell>
        <mxCell id="0eAvDL_jHnbjMay1iFv8-13" value="" style="endArrow=classic;html=1;fontFamily=Times New Roman;exitX=0;exitY=0.5;exitDx=0;exitDy=0;entryX=0.875;entryY=0.5;entryDx=0;entryDy=0;entryPerimeter=0;" edge="1" parent="1" source="0eAvDL_jHnbjMay1iFv8-9" target="0eAvDL_jHnbjMay1iFv8-5">
          <mxGeometry width="50" height="50" relative="1" as="geometry">
            <mxPoint x="130" y="240" as="sourcePoint" />
            <mxPoint x="180" y="190" as="targetPoint" />
          </mxGeometry>
        </mxCell>
        <mxCell id="0eAvDL_jHnbjMay1iFv8-14" value="" style="endArrow=classic;html=1;fontFamily=Times New Roman;exitX=0.125;exitY=0.625;exitDx=0;exitDy=0;exitPerimeter=0;" edge="1" parent="1" source="0eAvDL_jHnbjMay1iFv8-5">
          <mxGeometry width="50" height="50" relative="1" as="geometry">
            <mxPoint x="130" y="240" as="sourcePoint" />
            <mxPoint x="130" y="340" as="targetPoint" />
          </mxGeometry>
        </mxCell>
      </root>
    </mxGraphModel>
  </diagram>
</mxfile>
